<?xml version="1.0" encoding="utf-8"?>
<!-- Generator: Adobe Illustrator 24.0.1, SVG Export Plug-In . SVG Version: 6.00 Build 0)  -->
<svg version="1.1" id="Layer_1" xmlns="http://www.w3.org/2000/svg" xmlns:xlink="http://www.w3.org/1999/xlink" x="0px" y="0px"
	 viewBox="0 0 792 612" style="enable-background:new 0 0 792 612;" xml:space="preserve">
<style type="text/css">
	.st0{fill:#008286;}
	.st1{fill:none;}
</style>
<g>
	<g>
		<path d="M278.06,289.01h3.77l3.52,15.13h-3.54l-0.79-3.75h-7.12l-2.37,3.75h-3.43L278.06,289.01z M280.57,298.01l-1.23-6.38
			l-3.98,6.38H280.57z"/>
		<path d="M288.82,292.91h2.92l-2.39,11.23h-2.92L288.82,292.91z M289.7,288.75h2.92l-0.5,2.37h-2.92L289.7,288.75z"/>
		<path d="M294.2,292.91h2.92l-0.46,2.18h0.04c1.05-1.27,2.52-2.48,4.76-2.48c0.44,0,0.77,0.04,1.14,0.11L302,295.6
			c-0.75-0.25-1.3-0.28-1.81-0.28c-1.48,0-3.75,0.78-4.3,3.39l-1.15,5.42h-2.92L294.2,292.91z"/>
		<path d="M312.75,296.85c0.04-1.17-0.99-2.12-2.66-2.12c-2.71,0-4.29,1.84-4.7,3.79c-0.42,1.95,0.25,3.79,2.77,3.79
			c2.27,0,3.07-0.89,4.02-2.48h3.05c-1.67,4.66-6.45,4.72-7.23,4.72c-5.02,0-6.32-2.94-5.67-6.04c0.77-3.62,3.89-6.04,8.23-6.04
			c1.69,0,5.43,0.57,5.24,4.36H312.75z"/>
		<path d="M325.07,292.48c5.02,0,6.32,2.94,5.67,6.04c-0.66,3.09-3.21,6.04-8.23,6.04c-5.02,0-6.32-2.94-5.67-6.04
			C317.5,295.43,320.05,292.48,325.07,292.48z M322.98,302.31c2.84,0,4.29-1.84,4.7-3.79c0.42-1.95-0.25-3.79-3.09-3.79
			c-2.84,0-4.29,1.84-4.7,3.79C319.48,300.47,320.14,302.31,322.98,302.31z"/>
		<path d="M333.82,292.91h2.92l-0.36,1.69h0.04c1.21-1.21,2.86-1.99,4.85-1.99c2.42,0,4.58,0.87,3.94,3.9l-1.62,7.63h-2.92
			l1.42-6.69c0.26-1.21,0.15-2.58-2.27-2.58c-1.53,0-3.68,0.85-4.18,3.24l-1.28,6.04h-2.92L333.82,292.91z"/>
		<path d="M358.88,304.14h-2.92l0.33-1.55h-0.04c-0.36,0.68-2.39,1.97-4.72,1.97c-4.28,0-5.48-3.11-4.87-6
			c0.6-2.84,3.13-5.95,7.41-5.95c1.76,0,3.31,0.55,3.9,1.91h0.04l1.22-5.76h2.92L358.88,304.14z M352.71,302.31
			c2.73,0,4.16-1.84,4.57-3.75c0.4-1.86-0.25-3.71-2.98-3.71c-2.75,0-4.18,1.84-4.58,3.71C349.3,300.47,349.95,302.31,352.71,302.31
			z"/>
	</g>
	<g>
		<path class="st0" d="M398.97,248.32c1.16,0,2.1,0.94,2.1,2.1c0,1.16-0.94,2.11-2.1,2.11c-1.16,0-2.11-0.94-2.11-2.11
			C396.86,249.26,397.8,248.32,398.97,248.32z M400.7,250.42c0-0.97-0.77-1.76-1.73-1.76c-0.96,0-1.73,0.79-1.73,1.76
			c0,0.98,0.77,1.77,1.73,1.77C399.93,252.19,400.7,251.4,400.7,250.42z M398.13,249.2h0.95c0.54,0,0.84,0.23,0.84,0.72
			c0,0.44-0.29,0.64-0.67,0.68l0.7,1.06h-0.38l-0.68-1.03h-0.4v1.03h-0.37V249.2z M398.91,250.29c0.34,0,0.64-0.02,0.64-0.39
			c0-0.32-0.27-0.36-0.53-0.36h-0.51v0.75H398.91z"/>
		<path class="st0" d="M221.17,236.18l5.08-4.89h1.96h9.64l1.15,1.34h-2.25l1.26,1.85h-11.9l-1.31,1.7H221.17z M235.02,228.41
			l-2.8-3.19l-3.13,3.19H235.02z M243.96,237.53H224.1h-3.97l-4.95,4.76h5.6l1.23-1.57h20.06l-1.26-1.85h4.32L243.96,237.53z
			 M228.08,297.56h1.24l-1.26-1.71H236l1.27-1.85h2.49l1.13-1.34h-14.84h-2.88L228.08,297.56z M212.72,254.5l1.23-1.57h36.09
			l-1.26-1.85h8.29l-1.15-1.34h-39.88h-7.91l-4.96,4.76H212.72z M261.91,255.85h-49.89h-9.89l-4.92,4.72h11.5l1.2-1.54h44.23
			l-1.26-1.85h10.17L261.91,255.85z M214.13,243.64l-4.95,4.76h7.57l1.23-1.57h28.08l-1.26-1.85h6.27l-1.15-1.34h-29.84H214.13z
			 M199.98,268.22l4.66,4.63h9.03l-1.09-1.44h38.93l1.27-1.85h10.22l1.13-1.34h-53.56H199.98z M208.01,261.91h-11.84l-1.1,1.13
			l3.9,3.83h10.91l-1.3-1.77h46.92l1.27-1.85h11.14v-1.34H208.01z M229.09,298.91l2.73,3.15l3.01-3.15H229.09z M205.64,274.19
			l4.94,4.92h7.06l-1.28-1.74h31.34l1.27-1.85h8.34l1.13-1.34h-44.09H205.64z M211.59,280.46l4.78,4.76h5.13l-1.17-1.57h23.41
			l1.27-1.85h6.31l1.13-1.34h-34.15H211.59z M217.38,286.57l4.79,4.76h3.21l-1.18-1.57h15.65l1.27-1.85h4.44l1.13-1.34h-24.51
			H217.38z M295.76,263.25v14.49h-27.85V249.1h21.14l0.01,3.95h-11.11v5.86h7.44v3.01h-17.47l0.01,1.34h17.46v2.7h-7.44v7.55h13.45
			v-10.25H295.76z M295.76,261.91v-5.6l1.69,5.6h8.87l-3.6-12.82h-11.33v12.82H295.76z M297.86,263.25l4.38,14.49h4.17l4.04-14.49
			H297.86z M399.65,277.74h-9.25l-6.54-10.49v10.49h-7.55V249.1h11.27c0,0,9.98,0,9.98,8.91c0,7.83-6.14,8.51-6.14,8.51
			L399.65,277.74z M389.73,258.62c0-4.34-5.86-3.5-5.86-3.5v7.16C383.87,262.29,389.73,263.25,389.73,258.62z M322.14,261.91V249.1
			h-11.56l-3.52,12.82h3.76l1.56-5.6v5.6L322.14,261.91z M312.39,263.25v14.49h9.75v-14.49L312.39,263.25z M375.23,263.42
			c0,8.25-6.87,14.93-15.35,14.93c-8.47,0-15.34-6.68-15.34-14.93c0-8.24,6.87-14.93,15.34-14.93
			C368.36,248.49,375.23,255.17,375.23,263.42z M367.67,263.42c0-4.3-3.48-7.78-7.78-7.78c-4.3,0-7.78,3.48-7.78,7.78
			c0,4.3,3.48,7.78,7.78,7.78C364.18,271.2,367.67,267.71,367.67,263.42z M344.36,268.05c-1.15,1.43-3.52,2.83-6.06,2.83
			c-4.24,0-7.51-3.23-7.51-7.47c0-4.23,3.27-7.67,7.51-7.67c2.57,0,4.83,1.14,6.22,3.07c0.02,0.03,0.07,0.02,0.07,0.02v-8.8
			c-1.91-0.85-4.04-1.33-6.29-1.33c-8.35,0-15.12,6.59-15.12,14.71c0,8.13,6.77,14.71,15.12,14.71c2.25,0,4.38-0.48,6.29-1.33v-8.77
			C344.6,268.02,344.4,268,344.36,268.05z"/>
		<g>
			<g>
				<path class="st0" d="M425.32,258.67c-0.38-4.63-4.13-5.84-8.5-5.84c-4.36,0-7.66,1.71-7.66,4.78c0,3.53,3.3,4.36,9.9,5.46
					c4.93,0.83,9.86,1.97,9.86,7.17c0,6.64-6.03,8.46-11.31,8.46c-6.87,0-11.88-2.35-12.29-9.64h2.81c0.49,5.69,4.29,7.06,9.49,7.06
					c4.06,0,8.27-1.1,8.27-5.39c0-4.14-4.93-4.63-9.86-5.43c-6.45-1.02-9.9-2.85-9.9-7.21c0-5.92,5.46-7.85,10.7-7.85
					c5.54,0,11.12,1.97,11.31,8.42H425.32z"/>
				<path class="st0" d="M451.12,271.72c-1.14,3.49-4.1,6.91-10.62,6.91c-8.08,0-10.74-5.65-10.74-10.47
					c0-5.5,3.38-10.47,10.74-10.47c5.08,0,11.12,2.2,11.12,11.15h-19.04c0,4.1,2.92,7.44,7.93,7.44c4.71,0,6.83-1.56,7.82-4.55
					H451.12z M448.8,266.71c-0.8-4.86-4.36-6.68-8.12-6.68c-3.6,0-7.47,1.86-8.12,6.68H448.8z"/>
				<path class="st0" d="M453.51,258.29h2.81v4.52h0.08c1.02-2.35,2.88-5.12,7.55-5.12c0.8,0,1.25,0.08,1.67,0.15v2.88
					c-0.87-0.15-1.71-0.23-2.58-0.23c-3.04,0-6.71,1.86-6.71,7.47v10.05h-2.81V258.29z"/>
				<path class="st0" d="M485.19,258.29h3.04l-9.26,19.73h-3.04l-9.26-19.73h3.04l7.74,16.5L485.19,258.29z"/>
				<path class="st0" d="M489.32,250.7h2.81v4.17h-2.81V250.7z M489.32,258.29h2.81v19.73h-2.81V258.29z"/>
				<path class="st0" d="M514.93,270.96c-0.53,2.58-2.81,7.66-9.98,7.66c-7.13,0-11.12-4.29-11.12-10.47
					c0-5.92,3.64-10.47,11.12-10.47c6.75,0,9.37,4.21,9.83,7.06h-2.81c-0.87-3.38-3.53-4.7-7.02-4.7c-5.65,0-8.31,3.57-8.31,8.12
					c0,4.89,2.96,8.12,8.31,8.12c4.13,0,6.45-2.24,7.17-5.31H514.93z"/>
				<path class="st0" d="M537.96,271.72c-1.14,3.49-4.1,6.91-10.62,6.91c-8.08,0-10.74-5.65-10.74-10.47
					c0-5.5,3.38-10.47,10.74-10.47c5.08,0,11.12,2.2,11.12,11.15h-19.05c0,4.1,2.92,7.44,7.93,7.44c4.7,0,6.83-1.56,7.82-4.55
					H537.96z M535.65,266.71c-0.8-4.86-4.36-6.68-8.12-6.68c-3.6,0-7.47,1.86-8.12,6.68H535.65z"/>
				<path class="st0" d="M556.55,264.13c-0.72-3.19-2.69-4.1-6.79-4.1c-2.96,0-5.69,0.64-5.69,3.38c0,2.05,1.33,2.47,7.32,3.26
					c6.03,0.8,8.54,1.86,8.54,5.69c0,3.91-3.19,6.26-9.37,6.26c-6.26,0-9.98-2.05-9.98-6.79h2.58c0.49,3.3,2.35,4.44,7.4,4.44
					c3.91,0,6.56-0.8,6.56-3.76c0-1.97-1.4-2.85-7.55-3.45c-6.15-0.61-8.31-2.05-8.31-5.54c0-3.41,2.77-5.84,8.5-5.84
					c6.41,0,9.03,2.31,9.37,6.45H556.55z"/>
			</g>
			<g>
				<path d="M425.32,258.67c-0.38-4.63-4.13-5.84-8.5-5.84c-4.36,0-7.66,1.71-7.66,4.78c0,3.53,3.3,4.36,9.9,5.46
					c4.93,0.83,9.86,1.97,9.86,7.17c0,6.64-6.03,8.46-11.31,8.46c-6.87,0-11.88-2.35-12.29-9.64h2.81c0.49,5.69,4.29,7.06,9.49,7.06
					c4.06,0,8.27-1.1,8.27-5.39c0-4.14-4.93-4.63-9.86-5.43c-6.45-1.02-9.9-2.85-9.9-7.21c0-5.92,5.46-7.85,10.7-7.85
					c5.54,0,11.12,1.97,11.31,8.42H425.32z"/>
				<path d="M451.12,271.72c-1.14,3.49-4.1,6.91-10.62,6.91c-8.08,0-10.74-5.65-10.74-10.47c0-5.5,3.38-10.47,10.74-10.47
					c5.08,0,11.12,2.2,11.12,11.15h-19.04c0,4.1,2.92,7.44,7.93,7.44c4.71,0,6.83-1.56,7.82-4.55H451.12z M448.8,266.71
					c-0.8-4.86-4.36-6.68-8.12-6.68c-3.6,0-7.47,1.86-8.12,6.68H448.8z"/>
				<path d="M453.51,258.29h2.81v4.52h0.08c1.02-2.35,2.88-5.12,7.55-5.12c0.8,0,1.25,0.08,1.67,0.15v2.88
					c-0.87-0.15-1.71-0.23-2.58-0.23c-3.04,0-6.71,1.86-6.71,7.47v10.05h-2.81V258.29z"/>
				<path d="M485.19,258.29h3.04l-9.26,19.73h-3.04l-9.26-19.73h3.04l7.74,16.5L485.19,258.29z"/>
				<path d="M489.32,250.7h2.81v4.17h-2.81V250.7z M489.32,258.29h2.81v19.73h-2.81V258.29z"/>
				<path d="M514.93,270.96c-0.53,2.58-2.81,7.66-9.98,7.66c-7.13,0-11.12-4.29-11.12-10.47c0-5.92,3.64-10.47,11.12-10.47
					c6.75,0,9.37,4.21,9.83,7.06h-2.81c-0.87-3.38-3.53-4.7-7.02-4.7c-5.65,0-8.31,3.57-8.31,8.12c0,4.89,2.96,8.12,8.31,8.12
					c4.13,0,6.45-2.24,7.17-5.31H514.93z"/>
				<path d="M537.96,271.72c-1.14,3.49-4.1,6.91-10.62,6.91c-8.08,0-10.74-5.65-10.74-10.47c0-5.5,3.38-10.47,10.74-10.47
					c5.08,0,11.12,2.2,11.12,11.15h-19.05c0,4.1,2.92,7.44,7.93,7.44c4.7,0,6.83-1.56,7.82-4.55H537.96z M535.65,266.71
					c-0.8-4.86-4.36-6.68-8.12-6.68c-3.6,0-7.47,1.86-8.12,6.68H535.65z"/>
				<path d="M556.55,264.13c-0.72-3.19-2.69-4.1-6.79-4.1c-2.96,0-5.69,0.64-5.69,3.38c0,2.05,1.33,2.47,7.32,3.26
					c6.03,0.8,8.54,1.86,8.54,5.69c0,3.91-3.19,6.26-9.37,6.26c-6.26,0-9.98-2.05-9.98-6.79h2.58c0.49,3.3,2.35,4.44,7.4,4.44
					c3.91,0,6.56-0.8,6.56-3.76c0-1.97-1.4-2.85-7.55-3.45c-6.15-0.61-8.31-2.05-8.31-5.54c0-3.41,2.77-5.84,8.5-5.84
					c6.41,0,9.03,2.31,9.37,6.45H556.55z"/>
			</g>
		</g>
	</g>
</g>
<rect x="191.25" y="217.92" class="st1" width="405.56" height="99.31"/>
</svg>
