<?xml version="1.0" encoding="utf-8"?>
<!-- Generator: Adobe Illustrator 23.0.3, SVG Export Plug-In . SVG Version: 6.00 Build 0)  -->
<svg version="1.1" id="Layer_1" xmlns="http://www.w3.org/2000/svg" xmlns:xlink="http://www.w3.org/1999/xlink" x="0px" y="0px"
	 viewBox="0 0 432 288" style="enable-background:new 0 0 432 288;" xml:space="preserve">
<style type="text/css">
	.st0{fill:#F58025;}
	.st1{fill:none;}
	.st2{fill:#003263;}
	.st3{fill:#002B5C;}
</style>
<g>
	<g>
		<path class="st0" d="M255.2,91.4V78.1h-29.1v5.6l-9.3-16.5h-17.1l-9.3,16.5v-5.6h-29.1v13.3h5.9c0,0,0,16.2,0,25.9h-5.6v13.1h5.8
			c0.6,3.6,2.2,7.6,6.7,10.9c7.1,5.2,15.6,8.7,34.2,8.7c18.6,0,27.1-3.5,34.2-8.7c3.7-2.8,5.5-7.2,6.3-10.9h6.3v-13.1h-5.6V91.4
			H255.2z M208.6,87.4l5.8,10.2h-11.6L208.6,87.4z M183.8,95.5v-4.1h2L183.8,95.5z M228.5,131c-4.3,2.4-8.2,4-20.3,4
			c-12.1,0-16-1.7-20.3-4c-0.4-0.2-0.7-0.4-1-0.6h12.7v-13.3h-7.7l3.4-6.1H222l3.5,6.3h-8.7v13.1h12.6
			C229.2,130.6,228.9,130.8,228.5,131z M232.8,95.5l-2-4.1h2V95.5z"/>
	</g>
	<g>
		<polygon class="st1" points="202.8,97.6 214.4,97.6 208.6,87.4 		"/>
		<path class="st2" d="M229.8,133.3c-4.8,2.7-9.3,4.4-21.6,4.4c-12.3,0-16.8-1.7-21.6-4.4c-1.7-0.9-2.8-1.9-3.7-2.9H170
			c0.6,3,2,6.1,5.6,8.8c6.8,5,14.7,8.2,32.6,8.2c17.9,0,25.9-3.2,32.6-8.2c3.6-2.6,5-5.8,5.6-8.8h-12.9
			C232.6,131.4,231.5,132.4,229.8,133.3z"/>
		<path class="st2" d="M235.3,88.3c0,1.2,0,6,0,11.7l9.7,17.3h1.6c0-10,0-28.6,0-28.6h5.9v-8h-23.8v7.6v0H235.3z"/>
		<path class="st2" d="M181.1,100.1c0-5.7,0-10.5,0-11.7h6.6v-7.6h-23.8v8h5.9c0,0,0,18.5,0,28.6h1.7L181.1,100.1z"/>
		<path class="st2" d="M215.2,69.8l28.3,50.1h8.8v7.8h-32.8v-7.8H230l-6.4-11.6h-29.9l-6.4,11.4h9.6v8h-32.8v-7.8h8.8l28.3-50.1
			H215.2z M198.2,100.2H219L208.7,82L198.2,100.2z"/>
		<path class="st2" d="M247.5,139.9c0-1.1,0.8-1.9,1.8-1.9c1,0,1.8,0.8,1.8,1.9c0,1.1-0.8,1.9-1.8,1.9
			C248.3,141.8,247.5,141,247.5,139.9z M249.3,142.1c1.2,0,2.3-1,2.3-2.3c0-1.3-1-2.3-2.3-2.3c-1.2,0-2.3,1-2.3,2.3
			C247,141.2,248.1,142.1,249.3,142.1z M248.9,140.1h0.5l0.7,1.1h0.4l-0.7-1.1c0.4,0,0.7-0.3,0.7-0.7c0-0.5-0.3-0.7-0.9-0.7h-1v2.6
			h0.4V140.1z M248.9,139.7v-0.8h0.5c0.3,0,0.6,0.1,0.6,0.4c0,0.4-0.3,0.4-0.6,0.4H248.9z"/>
	</g>
</g>
<g>
	<path class="st3" d="M130.8,174.8c-0.5,1.5-1.9,4.7-1.9,6.2c0,1.9,2.1,1.9,3.5,2.1v0.5H124V183c2.7-0.7,3-1.3,4-3.7l3.5-9l1.8-5
		c0.3-0.8,0.7-1.5,0.3-2.1c0.8-0.3,1.6-0.9,2.2-1.7l6.7,17.9c0.8,2.2,1.3,3.1,3.8,3.6v0.5h-9V183c1.1-0.2,2.4-0.6,2.4-2
		c0-1.3-1.2-4.2-2-6.3H130.8z M134.2,165.4l-2.9,8h6.1L134.2,165.4z"/>
	<path class="st3" d="M175.8,162.7v0.5c-2.8,0.3-3,2-3.1,6.1l-0.2,6.7c-0.1,4-1.8,8-8.6,8c-9.5,0-8.5-6.9-8.5-9.3v-6.9
		c-0.1-3.2-0.1-4.1-3.8-4.6v-0.5h10.6v0.5c-4,0.6-4.1,1.2-4.1,4.6v6.3c0,0.6-1,8.5,7.4,8.5c6.6,0,6-6.3,6-10v-3.2
		c0-3.9-0.3-5.7-4.6-6.1v-0.5H175.8z"/>
	<path class="st3" d="M194,172.5c2.8,0.6,6.8,1.9,6.8,5.5c0,5.7-7.3,5.5-8.8,5.5l-8.4-0.1V183c3.7-0.5,3.7-1.4,3.8-4.6v-10.6
		c-0.1-3.2-0.1-4.1-3.6-4.5v-0.5l6.2-0.2c3.4-0.1,9.5,0.2,9.5,5.1C199.4,170.7,196.4,171.8,194,172.5L194,172.5z M190,178.2
		c0,2.4-0.2,4.7,3,4.7c2.7,0,4.5-1.7,4.5-4.4c0-1.9-1.7-5.6-6.3-5.4l-1.2,0.1V178.2z M190,172.5c2.8,0,6.4-0.8,6.4-4.3
		c0-3.7-3.2-4.8-6.4-4.8V172.5z"/>
	<path class="st3" d="M234,162.7v0.5c-2.8,0.3-3,2-3.1,6.1l-0.2,6.7c-0.1,4-1.8,8-8.6,8c-9.5,0-8.5-6.9-8.5-9.3v-6.9
		c-0.1-3.2-0.1-4.1-3.8-4.6v-0.5h10.6v0.5c-4,0.6-4.1,1.2-4.1,4.6v6.3c0,0.6-1,8.5,7.4,8.5c6.6,0,6-6.3,6-10v-3.2
		c0-3.9-0.3-5.7-4.6-6.1v-0.5H234z"/>
	<path class="st3" d="M245.5,169c0-4.7-0.2-5.4-3.6-5.7v-0.4l7.5-0.2c7.7-0.2,8.3,3.5,8.3,5c0,2.6-1.6,4-3.8,5l0.2,0.2
		c2.4,4.1,5.3,9.4,10.4,10.4l-0.1,0.5c-3.2-0.2-5.6-0.1-7.4-1.9c-2-2.1-3.6-4.8-4.3-6.1c-1.2-2.5-2.3-1.8-4.5-2.2v4.9
		c0,3.4,0.1,4,4.3,4.6v0.5h-10.7V183c3.7-0.5,3.7-1.4,3.8-4.6V169z M248.2,173c2.9,0,6.4-1.4,6.4-4.8c0-3.6-3.2-5-6.4-5V173z"/>
	<path class="st3" d="M289,178.7l-0.2-11.2c0-2.9-0.8-3.8-4.3-4.4v-0.5h8.4v0.5c-2.1,0.3-2.5,1.4-2.8,3.4
		c-0.4,3.4-0.3,10.7-0.1,17.4l-0.4,0.1c-4.9-5.8-10.4-11.1-15.5-16.7v5.6c0,7.6-0.2,9.2,4.3,10v0.5h-9.2V183c4.1-0.4,4-3.2,4-10.2
		v-4.6c0-3.1-0.5-4.3-4.4-5.1v-0.5h5.1L289,178.7z"/>
</g>
<g>
	<polyline class="st0" points="292.4,196.7 292.4,195.5 123.6,195.5 123.6,196.7 	"/>
</g>
<g>
	<path class="st3" d="M153.2,218.2c0,6.5-4.7,10.7-11.1,10.7c-6.4,0-11.1-4.2-11.1-10.7c0-6.5,4.7-10.7,11.1-10.7
		C149.8,207.5,153.2,212.8,153.2,218.2z M134.5,217.4c0,4.7,2.5,10.7,8,10.7c5,0,7.2-5.1,7.2-9.5c-0.1-5.4-3.2-10.5-7.9-10.5
		C136.6,208.2,134.5,213.3,134.5,217.4z"/>
	<path class="st3" d="M181.5,223.8l-0.2-11.1c0-2.9-0.8-3.7-4.3-4.3v-0.5h8.3v0.5c-2.1,0.3-2.5,1.4-2.7,3.4
		c-0.4,3.3-0.3,10.7-0.1,17.3l-0.4,0.1c-4.9-5.7-10.3-11.1-15.4-16.6v5.6c0,7.5-0.2,9.1,4.2,10v0.5h-9.1v-0.5c4.1-0.4,4-3.2,4-10.1
		v-4.6c0-3-0.5-4.2-4.3-5.1v-0.5h5L181.5,223.8z"/>
	<path class="st3" d="M192.9,228.1c3.6-0.5,3.7-1.4,3.8-4.5v-10.7c-0.1-3.1-0.1-4-3.8-4.5v-0.5h10.2v0.5c-3.6,0.5-3.8,1.4-3.8,4.5
		v10c0,1.5,0,3.1,0.5,4.6l3.7,0.3c4.6,0.3,5.4-1.1,7.7-5l0.4,0.2l-1.7,5.7h-17V228.1z"/>
	<path class="st3" d="M225,223.5c0.1,3.1,0.1,4,3.8,4.5v0.5h-10.2v-0.5c3.6-0.5,3.7-1.4,3.8-4.5v-10.7c-0.1-3.1-0.1-4-3.8-4.5v-0.5
		h10.2v0.5c-3.6,0.5-3.7,1.4-3.8,4.5V223.5z"/>
	<path class="st3" d="M256.3,223.8l-0.2-11.1c0-2.9-0.8-3.7-4.3-4.3v-0.5h8.3v0.5c-2.1,0.3-2.5,1.4-2.7,3.4
		c-0.4,3.3-0.3,10.7-0.1,17.3l-0.4,0.1c-4.9-5.7-10.3-11.1-15.4-16.6v5.6c0,7.5-0.2,9.1,4.2,10v0.5h-9.1v-0.5c4.1-0.4,4-3.2,4-10.1
		v-4.6c0-3-0.5-4.2-4.3-5.1v-0.5h5L256.3,223.8z"/>
	<path class="st3" d="M267.8,228.1c3.6-0.5,3.7-1.4,3.8-4.5v-10.7c-0.1-3.1-0.1-4-3.8-4.5v-0.5h16.3l-0.4,4.7h-0.5
		c-0.2-3.9-3-4-6.1-4h-2.9v8.7h3.2c2.3,0,4-0.2,4.3-2.8h0.5v6.8h-0.5c-0.4-2.7-2.1-2.7-4.3-2.7h-3.2v5c0,1.8-0.4,4.3,4.6,4.3
		c3.8,0,5.7-1.5,6.5-5.3h0.5c0,2.3-0.4,4.2-1,6h-16.9V228.1z"/>
</g>
</svg>
