<svg xmlns="http://www.w3.org/2000/svg" viewBox="429 100.2 292.794 50"><defs><style>.a{fill:#221f20;}.b{fill:#fad802;}.c{fill:#157eba;}.d{fill:#007cba;}</style></defs><g transform="translate(429 100.2)"><rect class="a" width="153.769" height="41.574" transform="translate(0 4.213)"/><rect class="b" width="146.341" height="34.257" transform="translate(3.659 7.871)"/><path class="a" d="M142.929,31.581a9.547,9.547,0,0,0-1.774-3.769c-1.552-2-3.326-3.1-4.656-2.882h-9.534c-4.324-4.656-8.758-9.534-9.645-10.532-1.663-2-2.772-2-3.1-2H13.328c-2.328-.111-3.437.554-3.88,1.22-.665.887-.665,2.328.111,3.991h0a12.363,12.363,0,0,0,2.661,3.548c2.328,2.106,4.878,2.993,6.208,2.328h6.319c4.324,4.767,8.98,9.756,9.867,10.865,1.663,2,2.882,1.774,2.993,1.774h99.335c.443.111,3.769.665,5.322-1.109a3.564,3.564,0,0,0,.665-3.437m-2.661-3.215h0a5.419,5.419,0,0,1,.776,1.22h-3.991c-.222-.443-.443-.776-.665-1.22Zm-6.208,4.1c-.111-.222-.333-.333-.554-.554h4.1c.222.222.333.443.554.554Zm4.878.554c.111.111.333.222.443.333h-4.545c-.111-.111-.222-.222-.222-.333Zm-5.876-1.552-.554-.554h4.213c0,.111.111.111.111.222a1.53,1.53,0,0,1,.333.443h-4.1Zm-1-1.109a2.939,2.939,0,0,1-.554-.665h4.545a2.319,2.319,0,0,0,.443.665Zm4.213-4.435c.443-.443,2,.222,3.548,1.885h-3.659a3.3,3.3,0,0,1-.222-1.33,2.423,2.423,0,0,1,.333-.554m-.554,3.326h-4.656l-.665-.665h4.989l.333.665m-5.765-1.22-.443-.443h5.654c0,.111.111.333.111.443Zm5.211-2.217a.831.831,0,0,0-.111.554v.665h-5.987c-.333-.443-.776-.776-1.109-1.22h7.206ZM116.543,14.84a2.419,2.419,0,0,1,.443.554H18.649a6.237,6.237,0,0,0-1.22-1.22h98.448l.665.665m-98.78,1.109a10,10,0,0,1,1,1.109h-2l-.443-.443c-.222-.222-.554-.443-.776-.665Zm-2.772-.554a9.75,9.75,0,0,0-1.109-.665h2.882a3.516,3.516,0,0,1,.554.665Zm99.335-2.106h0c.111,0,.443-.111,1,.443H17.1l-.222-.222-.111-.111h0Zm-98,1H12.774a.667.667,0,0,0-.443-.111h3.88a.109.109,0,0,0,.111.111M14.88,13.4a1.6,1.6,0,0,1,.776.222H11a8.776,8.776,0,0,1,3.88-.222m-4.656.776h0m0,1.885a.935.935,0,0,1,.222-.776,1.189,1.189,0,0,1,.665-.222c1.109-.111,2.772.776,4.324,2H10.445a2.025,2.025,0,0,1-.222-1m.443,1.441h5.322a11.105,11.105,0,0,1,1.552,1.774H11.887a5.663,5.663,0,0,1-1.22-1.774M13,20.383l-.665-.665h5.543a5.925,5.925,0,0,1,.665,1.552H14.215A4.922,4.922,0,0,1,13,20.383m5.543,1.441a1.576,1.576,0,0,1-.222.665c-.443.554-1.885.333-3.437-.665ZM17.319,17.5H19.2c.554.554,1.109,1.109,1.663,1.774H18.649a9.253,9.253,0,0,0-1.33-1.774m3.991,2.217c.443.554,1,1,1.441,1.552H19.425a4.759,4.759,0,0,0-.443-1.552Zm1.885,2.106c.111.111.222.111.222.222h-3.88v-.222Zm-4.1,1.22a.84.84,0,0,0,.222-.443h4.435l.443.443Zm15.3,9.424c-.333-.333-.665-.776-1.109-1.22H34.5V30.8H32.84a10,10,0,0,1-1-1.109H34.5v-.443H31.4a21.284,21.284,0,0,0-1.552-1.663H34.5v-.443H29.4c-.443-.443-.776-.887-1.22-1.33H34.5v-.554H27.74a10,10,0,0,1-1-1.109H34.5v-.443H26.3l-.665-.665H34.5V22.6H25.19a2.939,2.939,0,0,1-.554-.665H34.5v-.443H24.193c-.111-.111-.222-.333-.443-.443H34.5v-.443h-11.2a2.939,2.939,0,0,1-.554-.665H34.5V19.5h-12.2a2.939,2.939,0,0,1-.554-.665H34.5v-.443H21.2a2.939,2.939,0,0,1-.554-.665H34.5v-.443H20.091c-.333-.333-.665-.776-1-1.109H117.43a8.087,8.087,0,0,0,1,1.109h-1.22V17.5h1.663c.222.222.333.443.554.665h-2.217v.443h2.661c.222.222.333.443.554.665h-3.215v.443h3.659c.222.222.333.443.554.665H117.1v.443h4.767c.111.111.222.333.443.443h-5.1v.443h5.543a2.939,2.939,0,0,1,.554.665H117.1v.443h6.652l.665.665H117.1v.665h7.761a10,10,0,0,1,1,1.109h-8.647V25.7h9.2a13.287,13.287,0,0,1,1.22,1.33H117.208v.443h10.865c.111.222.333.333.443.443H117.208v.665H128.96l.665.665H117.208V29.7h12.86a2.939,2.939,0,0,1,.554.665H117.1v.887h0V30.8h13.858l.554.554H117.1v.554h14.967l.554.554Zm.443.554h98.337a2.939,2.939,0,0,1,.554.665H35.39a2.939,2.939,0,0,0-.554-.665m2.772,2.106c-.111,0-.776,0-1.774-1h98.448a6.711,6.711,0,0,0,1,1H37.607Zm99.557,0a3.754,3.754,0,0,1-.887-.333h4.767c-1.109.776-3.1.554-3.88.333m4.545-.776h-5.876a2.5,2.5,0,0,0-.554-.554h4.989a2.056,2.056,0,0,0,.776.222,2.441,2.441,0,0,0,.887-.111c-.111.111-.111.333-.222.443m0-1.441a.831.831,0,0,1-.554.111,6.1,6.1,0,0,1-3.437-2.55,1.532,1.532,0,0,1-.333-.443h3.991a.407.407,0,0,1,.111.333h0a8.167,8.167,0,0,1,.443,1.552,1,1,0,0,1-.222,1" transform="translate(0.974 1.346)"/><path class="a" d="M47.9,30.171V17.2h4.878c2.217,0,4.1.665,4.1,3.215a3.344,3.344,0,0,1-1.33,2.772c1.109.333,1.663,1.552,1.663,2.993,0,2.882-1.774,3.88-4.324,3.88H47.9Zm3.326-5.432v2.439h1.441c.776,0,1.441-.222,1.441-1.22,0-1.109-.776-1.22-1.774-1.22Zm0-4.435v2.106h1.33A.994.994,0,0,0,53.665,21.3c0-1-.665-1-1.33-1Z" transform="translate(5.204 1.869)"/><path class="a" d="M64.8,30.171V17.2h3.326v4.435h3.1V17.2h3.326V30.171H71.23V25.182h-3.1v4.989Z" transform="translate(7.04 1.869)"/><path class="a" d="M75.7,17.2h3.326v7.761c0,1.22.222,2.328,1.552,2.328,1.22,0,1.552-1,1.552-2.328V17.2h3.326v7.317c0,4.1-1.441,5.987-4.878,5.987-3.1,0-4.878-1.552-4.878-5.987Z" transform="translate(8.225 1.869)"/><path class="a" d="M92.952,24.3l-.111-2.882V17.2h3.1V30.171H92.952l-3.659-6.984.111,2.882v4.1H86.3V17.2h3.1Z" transform="translate(9.376 1.869)"/><path class="a" d="M96.3,17.2h9.313v3.437h-2.993v9.534H99.293V20.637H96.3Z" transform="translate(10.463 1.869)"/><path class="a" d="M43.474,26a1.774,1.774,0,1,0,1.774,1.774A1.751,1.751,0,0,0,43.474,26" transform="translate(4.531 2.825)"/><path class="a" d="M58.774,26a1.774,1.774,0,1,0,1.774,1.774A1.9,1.9,0,0,0,58.774,26" transform="translate(6.193 2.825)"/><path class="a" d="M35.585,26.4a2.532,2.532,0,0,0,2.55,1.109c.665-.222.887-.665.887-1.774V17.2h3.326v7.982c0,3.437-1.22,5.211-3.88,5.322-2.55.111-3.326-.333-4.767-2Z" transform="translate(3.661 1.869)"/><path class="b" d="M249.982,2.2A7.974,7.974,0,0,0,242,10.293,7.983,7.983,0,1,0,249.982,2.2m0,11.863a3.769,3.769,0,1,1,3.769-3.769,3.809,3.809,0,0,1-3.769,3.769" transform="translate(26.293 0.239)"/><path class="c" d="M182.405,25.831h0a14.891,14.891,0,0,0-3.437-2.439.109.109,0,0,1-.111-.111,10.766,10.766,0,0,0,4.545-5.432,12.874,12.874,0,0,0,.776-4.878,13.208,13.208,0,0,0-1.109-5.654,11.24,11.24,0,0,0-2.993-4.1A13.343,13.343,0,0,0,175.421.776,19.088,19.088,0,0,0,169.656,0a16.625,16.625,0,0,0-4.1.443,33.177,33.177,0,0,0-3.548,1.109A14,14,0,0,0,159.124,3.1a8.489,8.489,0,0,0-2.106,1.774l-.887.887,3.437,3.659.887-.776a17.455,17.455,0,0,1,3.659-2.328,13.539,13.539,0,0,1,5.432-1.109c3.326,0,5.654.776,7.1,2.217a8.3,8.3,0,0,1,2.217,5.987,7.364,7.364,0,0,1-2.217,5.765c-1.441,1.441-3.659,2.106-6.652,2.106h-4.213v4.989h4.1a19.629,19.629,0,0,1,4.545.554,9.03,9.03,0,0,1,3.437,1.663,7.669,7.669,0,0,1,2.106,2.772,11.265,11.265,0,0,1,.776,4.1c0,3.1-.887,5.432-2.772,7.1s-4.767,2.55-8.537,2.55a14.943,14.943,0,0,1-5.765-1.22A14.593,14.593,0,0,1,158.9,40.8l-.887-.887L154.8,43.9l.776.776a13.118,13.118,0,0,0,2.661,2.106,16.456,16.456,0,0,0,3.437,1.663,22.324,22.324,0,0,0,3.88,1.109,16.322,16.322,0,0,0,3.991.443c5.1,0,9.2-1.33,12.2-3.88s4.545-6.319,4.545-10.865a13.96,13.96,0,0,0-1-5.432,24.838,24.838,0,0,0-2.882-3.991" transform="translate(16.819 0)"/><path class="c" d="M263.907,18.4a10.514,10.514,0,0,1-4.545,2.661,24.431,24.431,0,0,1,.443,3.991A19.734,19.734,0,1,1,240.071,5.211a19,19,0,0,1,6.1,1l.222.111A11.07,11.07,0,0,1,249.606,2l-.665-.333A23.543,23.543,0,0,0,240.182.111a24.959,24.959,0,0,0-24.834,24.945,12.049,12.049,0,0,0,.111,2,14.545,14.545,0,0,0-3.437-4.656,13.851,13.851,0,0,0-5.211-2.772,22.9,22.9,0,0,0-6.319-.887,18.137,18.137,0,0,0-9.534,2.328,21.149,21.149,0,0,0-2.328,1.663c.333-1.109.665-2.106,1-3.1a24.207,24.207,0,0,1,3.991-6.763,21.229,21.229,0,0,1,6.208-4.989,25.392,25.392,0,0,1,8.758-2.661l1.109-.111V0l-1.33.111a29.847,29.847,0,0,0-8.758,2.106,26.912,26.912,0,0,0-6.763,3.88,25.193,25.193,0,0,0-4.989,5.322,34.387,34.387,0,0,0-3.326,6.319,29.589,29.589,0,0,0-1.774,6.652,44.652,44.652,0,0,0-.554,6.541,27.037,27.037,0,0,0,1.22,8.426,16.093,16.093,0,0,0,3.659,5.987,13.754,13.754,0,0,0,5.543,3.437,22.89,22.89,0,0,0,6.874,1.109,19.244,19.244,0,0,0,6.763-1.109,14.736,14.736,0,0,0,5.432-3.215,14.315,14.315,0,0,0,3.659-5.1,16.2,16.2,0,0,0,1.33-6.652V33.37a24.829,24.829,0,0,0,48.226-8.426,22.439,22.439,0,0,0-.776-6.1ZM210.47,38.359h0a10.275,10.275,0,0,1-2.217,3.326,11.943,11.943,0,0,1-3.659,2.217,13.812,13.812,0,0,1-4.989.887,12.522,12.522,0,0,1-8.647-2.882,10.574,10.574,0,0,1-3.326-7.871,9.564,9.564,0,0,1,.887-3.991,8.566,8.566,0,0,1,2.439-3.215,14.081,14.081,0,0,1,3.769-2.217,14.708,14.708,0,0,1,4.989-.776q5.488,0,8.647,2.661c2.106,1.663,3.1,4.213,3.1,7.65a17.957,17.957,0,0,1-1,4.213" transform="translate(19.796 0)"/><path class="d" d="M254.9,37.654V37.1h4.324v.554H257.45v4.767h-.776V37.654Z" transform="translate(27.694 4.031)"/><path class="d" d="M260.3,37.1l1.663,4.435,1.663-4.435h1v5.322h-.665V37.987h0l-1.663,4.435h-.665l-1.663-4.435h0v4.435H259.3V37.1Z" transform="translate(28.172 4.031)"/></g></svg>