<?xml version="1.0" encoding="utf-8"?>
<!-- Generator: Adobe Illustrator 23.0.3, SVG Export Plug-In . SVG Version: 6.00 Build 0)  -->
<svg version="1.1" xmlns="http://www.w3.org/2000/svg" xmlns:xlink="http://www.w3.org/1999/xlink" x="0px" y="0px"
	 viewBox="0 0 350 280" style="enable-background:new 0 0 350 280;" xml:space="preserve">
<style type="text/css">
	.Arched_x0020_Green{fill:url(#SVGID_1_);stroke:#FFFFFF;stroke-width:0.25;stroke-miterlimit:1;}
	.st0{fill:#005FAF;}
	.st1{fill:#B1B3B5;}
	.st2{fill:#FFFFFF;}
</style>
<linearGradient id="SVGID_1_" gradientUnits="userSpaceOnUse" x1="0" y1="280" x2="0.7071" y2="279.2929">
	<stop  offset="0" style="stop-color:#1EAB4B"/>
	<stop  offset="0.9831" style="stop-color:#19361A"/>
</linearGradient>
<g id="Layer_4">
	<rect class="st0" width="350" height="280"/>
</g>
<g id="tagline">
	<g>
		<path class="st1" d="M199.99,156.34l2.09-5.14h0.54l2.09,5.14h-0.68l-0.61-1.55h-2.15l-0.61,1.55H199.99z M202.35,152
			c-0.23,0.64-0.45,1.22-0.66,1.74l-0.19,0.48h1.7l-0.19-0.48c-0.21-0.53-0.42-1.11-0.64-1.74H202.35z"/>
		<path class="st1" d="M208.14,154.06c0.31,0.45,0.63,0.92,0.93,1.4h0.02c-0.03-0.5-0.05-1.01-0.05-1.53v-2.73h0.63v5.14h-0.63
			l-2.02-2.87c-0.35-0.5-0.66-0.96-0.93-1.4h-0.02c0.03,0.47,0.05,1.02,0.05,1.64v2.62h-0.63v-5.14h0.62L208.14,154.06z"/>
		<path class="st1" d="M210.46,156.34l2.09-5.14h0.54l2.09,5.14h-0.68l-0.61-1.55h-2.15l-0.61,1.55H210.46z M212.82,152
			c-0.23,0.64-0.45,1.22-0.66,1.74l-0.19,0.48h1.7l-0.19-0.48c-0.21-0.53-0.42-1.11-0.64-1.74H212.82z"/>
		<path class="st1" d="M216.6,151.2v4.57h2.51v0.57h-3.14v-5.14H216.6z"/>
		<path class="st1" d="M221.02,154.27v2.06h-0.63v-2.06l-1.87-3.07h0.69l1.49,2.5h0.02l1.49-2.5h0.69L221.02,154.27z"/>
		<path class="st1" d="M224.2,152.56c0,0.15,0.03,0.28,0.09,0.37c0.06,0.1,0.14,0.18,0.25,0.25c0.1,0.06,0.22,0.12,0.36,0.16
			c0.14,0.04,0.28,0.08,0.43,0.11c0.2,0.05,0.39,0.1,0.59,0.16c0.19,0.06,0.36,0.14,0.51,0.24c0.15,0.1,0.27,0.24,0.37,0.41
			c0.09,0.17,0.14,0.38,0.14,0.64c0,0.27-0.05,0.5-0.15,0.69c-0.1,0.19-0.24,0.35-0.42,0.48c-0.18,0.12-0.39,0.21-0.63,0.28
			c-0.25,0.06-0.51,0.09-0.8,0.09c-0.13,0-0.27-0.01-0.41-0.03c-0.14-0.01-0.27-0.04-0.4-0.07c-0.13-0.03-0.24-0.06-0.34-0.09
			c-0.1-0.04-0.18-0.07-0.24-0.11v-0.57c0.09,0.04,0.2,0.09,0.31,0.13c0.12,0.04,0.24,0.07,0.36,0.1c0.12,0.03,0.25,0.05,0.37,0.06
			c0.13,0.02,0.25,0.02,0.36,0.02c0.18,0,0.35-0.02,0.51-0.05c0.16-0.03,0.31-0.08,0.43-0.15c0.12-0.07,0.22-0.17,0.29-0.29
			c0.07-0.12,0.11-0.28,0.11-0.47c0-0.15-0.03-0.28-0.09-0.38c-0.06-0.1-0.15-0.18-0.25-0.25c-0.11-0.07-0.22-0.12-0.36-0.16
			c-0.13-0.04-0.28-0.08-0.43-0.11c-0.2-0.04-0.4-0.1-0.59-0.16c-0.19-0.06-0.36-0.14-0.51-0.24c-0.15-0.1-0.27-0.23-0.36-0.4
			c-0.09-0.16-0.14-0.37-0.14-0.62c0-0.26,0.05-0.49,0.14-0.67c0.1-0.19,0.23-0.34,0.39-0.47c0.16-0.12,0.35-0.21,0.56-0.27
			c0.21-0.06,0.44-0.09,0.68-0.09c0.27,0,0.53,0.03,0.77,0.08c0.24,0.05,0.45,0.12,0.65,0.21v0.58c-0.21-0.09-0.43-0.16-0.66-0.22
			c-0.23-0.05-0.47-0.08-0.73-0.09c-0.2,0-0.36,0.02-0.51,0.06c-0.14,0.04-0.26,0.1-0.36,0.18c-0.09,0.08-0.16,0.17-0.21,0.28
			C224.22,152.3,224.2,152.42,224.2,152.56z"/>
		<path class="st1" d="M228.04,156.34v-5.14h0.63v5.14H228.04z"/>
		<path class="st1" d="M230.47,152.56c0,0.15,0.03,0.28,0.09,0.37c0.06,0.1,0.14,0.18,0.25,0.25c0.1,0.06,0.22,0.12,0.36,0.16
			c0.13,0.04,0.28,0.08,0.43,0.11c0.2,0.05,0.4,0.1,0.59,0.16c0.19,0.06,0.36,0.14,0.51,0.24c0.15,0.1,0.27,0.24,0.37,0.41
			c0.09,0.17,0.14,0.38,0.14,0.64c0,0.27-0.05,0.5-0.15,0.69c-0.1,0.19-0.24,0.35-0.42,0.48c-0.18,0.12-0.39,0.21-0.63,0.28
			c-0.25,0.06-0.51,0.09-0.8,0.09c-0.13,0-0.27-0.01-0.41-0.03c-0.14-0.01-0.27-0.04-0.4-0.07c-0.13-0.03-0.24-0.06-0.34-0.09
			c-0.1-0.04-0.19-0.07-0.24-0.11v-0.57c0.09,0.04,0.2,0.09,0.31,0.13c0.12,0.04,0.23,0.07,0.36,0.1c0.12,0.03,0.25,0.05,0.37,0.06
			c0.13,0.02,0.24,0.02,0.35,0.02c0.18,0,0.35-0.02,0.51-0.05c0.16-0.03,0.3-0.08,0.43-0.15c0.12-0.07,0.22-0.17,0.29-0.29
			c0.07-0.12,0.11-0.28,0.11-0.47c0-0.15-0.03-0.28-0.09-0.38c-0.06-0.1-0.15-0.18-0.25-0.25c-0.11-0.07-0.23-0.12-0.36-0.16
			c-0.14-0.04-0.28-0.08-0.43-0.11c-0.2-0.04-0.39-0.1-0.58-0.16c-0.19-0.06-0.36-0.14-0.51-0.24c-0.15-0.1-0.27-0.23-0.36-0.4
			c-0.09-0.16-0.14-0.37-0.14-0.62c0-0.26,0.05-0.49,0.14-0.67c0.09-0.19,0.23-0.34,0.39-0.47c0.16-0.12,0.35-0.21,0.56-0.27
			c0.21-0.06,0.44-0.09,0.68-0.09c0.27,0,0.53,0.03,0.76,0.08c0.24,0.05,0.45,0.12,0.65,0.21v0.58c-0.21-0.09-0.43-0.16-0.66-0.22
			c-0.23-0.05-0.47-0.08-0.73-0.09c-0.19,0-0.36,0.02-0.51,0.06c-0.14,0.04-0.26,0.1-0.36,0.18c-0.09,0.08-0.16,0.17-0.21,0.28
			C230.49,152.3,230.47,152.42,230.47,152.56z"/>
		<path class="st1" d="M236.4,157.44h-0.56v-7.34h0.56V157.44z"/>
		<path class="st1" d="M239.55,152.56c0,0.15,0.03,0.28,0.09,0.37c0.06,0.1,0.14,0.18,0.25,0.25c0.1,0.06,0.22,0.12,0.36,0.16
			c0.14,0.04,0.28,0.08,0.43,0.11c0.2,0.05,0.4,0.1,0.59,0.16c0.19,0.06,0.36,0.14,0.51,0.24c0.15,0.1,0.27,0.24,0.36,0.41
			c0.09,0.17,0.14,0.38,0.14,0.64c0,0.27-0.05,0.5-0.15,0.69c-0.1,0.19-0.24,0.35-0.42,0.48c-0.18,0.12-0.39,0.21-0.63,0.28
			c-0.25,0.06-0.51,0.09-0.8,0.09c-0.13,0-0.27-0.01-0.41-0.03c-0.14-0.01-0.27-0.04-0.4-0.07c-0.13-0.03-0.24-0.06-0.34-0.09
			c-0.1-0.04-0.18-0.07-0.24-0.11v-0.57c0.09,0.04,0.2,0.09,0.31,0.13c0.12,0.04,0.23,0.07,0.36,0.1c0.12,0.03,0.25,0.05,0.37,0.06
			c0.13,0.02,0.24,0.02,0.35,0.02c0.18,0,0.35-0.02,0.51-0.05c0.16-0.03,0.31-0.08,0.43-0.15c0.12-0.07,0.22-0.17,0.29-0.29
			c0.07-0.12,0.11-0.28,0.11-0.47c0-0.15-0.03-0.28-0.09-0.38c-0.06-0.1-0.14-0.18-0.25-0.25c-0.11-0.07-0.23-0.12-0.37-0.16
			c-0.13-0.04-0.28-0.08-0.43-0.11c-0.2-0.04-0.39-0.1-0.58-0.16c-0.19-0.06-0.36-0.14-0.51-0.24c-0.15-0.1-0.27-0.23-0.36-0.4
			c-0.09-0.16-0.14-0.37-0.14-0.62c0-0.26,0.05-0.49,0.14-0.67c0.09-0.19,0.22-0.34,0.39-0.47c0.16-0.12,0.35-0.21,0.57-0.27
			c0.21-0.06,0.44-0.09,0.68-0.09c0.28,0,0.53,0.03,0.76,0.08c0.24,0.05,0.45,0.12,0.65,0.21v0.58c-0.21-0.09-0.43-0.16-0.66-0.22
			c-0.22-0.05-0.47-0.08-0.73-0.09c-0.19,0-0.36,0.02-0.51,0.06c-0.14,0.04-0.26,0.1-0.36,0.18c-0.09,0.08-0.16,0.17-0.21,0.28
			C239.57,152.3,239.55,152.42,239.55,152.56z"/>
		<path class="st1" d="M245.38,154.27v2.06h-0.63v-2.06l-1.87-3.07h0.68l1.49,2.5h0.02l1.49-2.5h0.68L245.38,154.27z"/>
		<path class="st1" d="M250.7,154.06c0.32,0.45,0.63,0.92,0.93,1.4h0.03c-0.03-0.5-0.05-1.01-0.05-1.53v-2.73h0.63v5.14h-0.63
			l-2.01-2.87c-0.35-0.5-0.66-0.96-0.93-1.4h-0.02c0.03,0.47,0.05,1.02,0.05,1.64v2.62h-0.63v-5.14h0.62L250.7,154.06z"/>
		<path class="st1" d="M255.38,156.34h-0.63v-4.57h-1.72v-0.56h4.06v0.56h-1.72V156.34z"/>
		<path class="st1" d="M258.52,153.42h2.69v-2.22h0.63v5.14h-0.63v-2.35h-2.69v2.35h-0.63v-5.14h0.63V153.42z"/>
		<path class="st1" d="M263.77,155.77h2.63v0.57h-3.26v-5.14h3.12v0.56h-2.49v1.66h2.21v0.56h-2.21V155.77z"/>
		<path class="st1" d="M267.98,152.56c0,0.15,0.03,0.28,0.09,0.37c0.06,0.1,0.14,0.18,0.25,0.25c0.1,0.06,0.22,0.12,0.36,0.16
			c0.14,0.04,0.28,0.08,0.43,0.11c0.2,0.05,0.4,0.1,0.59,0.16c0.19,0.06,0.37,0.14,0.52,0.24c0.15,0.1,0.27,0.24,0.37,0.41
			c0.09,0.17,0.14,0.38,0.14,0.64c0,0.27-0.05,0.5-0.15,0.69c-0.1,0.19-0.24,0.35-0.42,0.48c-0.18,0.12-0.39,0.21-0.63,0.28
			c-0.25,0.06-0.51,0.09-0.8,0.09c-0.13,0-0.27-0.01-0.41-0.03c-0.14-0.01-0.27-0.04-0.4-0.07c-0.13-0.03-0.24-0.06-0.34-0.09
			c-0.1-0.04-0.18-0.07-0.24-0.11v-0.57c0.09,0.04,0.2,0.09,0.31,0.13c0.11,0.04,0.23,0.07,0.36,0.1c0.12,0.03,0.25,0.05,0.37,0.06
			c0.13,0.02,0.24,0.02,0.35,0.02c0.18,0,0.35-0.02,0.51-0.05c0.16-0.03,0.31-0.08,0.43-0.15c0.12-0.07,0.22-0.17,0.29-0.29
			c0.07-0.12,0.11-0.28,0.11-0.47c0-0.15-0.03-0.28-0.09-0.38c-0.06-0.1-0.14-0.18-0.25-0.25c-0.11-0.07-0.23-0.12-0.36-0.16
			c-0.14-0.04-0.28-0.08-0.43-0.11c-0.2-0.04-0.39-0.1-0.59-0.16c-0.19-0.06-0.36-0.14-0.51-0.24c-0.15-0.1-0.27-0.23-0.36-0.4
			c-0.09-0.16-0.14-0.37-0.14-0.62c0-0.26,0.05-0.49,0.14-0.67c0.09-0.19,0.22-0.34,0.39-0.47c0.16-0.12,0.35-0.21,0.56-0.27
			c0.21-0.06,0.44-0.09,0.68-0.09c0.27,0,0.53,0.03,0.77,0.08c0.24,0.05,0.45,0.12,0.65,0.21v0.58c-0.21-0.09-0.43-0.16-0.66-0.22
			c-0.23-0.05-0.47-0.08-0.73-0.09c-0.19,0-0.36,0.02-0.51,0.06c-0.14,0.04-0.26,0.1-0.36,0.18c-0.09,0.08-0.16,0.17-0.21,0.28
			C268,152.3,267.98,152.42,267.98,152.56z"/>
		<path class="st1" d="M271.82,156.34v-5.14h0.63v5.14H271.82z"/>
		<path class="st1" d="M274.25,152.56c0,0.15,0.03,0.28,0.09,0.37c0.06,0.1,0.14,0.18,0.25,0.25c0.1,0.06,0.22,0.12,0.36,0.16
			c0.14,0.04,0.28,0.08,0.43,0.11c0.2,0.05,0.4,0.1,0.59,0.16c0.19,0.06,0.36,0.14,0.52,0.24c0.15,0.1,0.27,0.24,0.36,0.41
			c0.09,0.17,0.14,0.38,0.14,0.64c0,0.27-0.05,0.5-0.15,0.69c-0.1,0.19-0.24,0.35-0.42,0.48c-0.18,0.12-0.39,0.21-0.63,0.28
			c-0.25,0.06-0.51,0.09-0.8,0.09c-0.13,0-0.27-0.01-0.41-0.03c-0.14-0.01-0.27-0.04-0.4-0.07c-0.13-0.03-0.24-0.06-0.34-0.09
			c-0.1-0.04-0.18-0.07-0.24-0.11v-0.57c0.09,0.04,0.2,0.09,0.31,0.13c0.12,0.04,0.23,0.07,0.36,0.1c0.12,0.03,0.25,0.05,0.37,0.06
			c0.12,0.02,0.24,0.02,0.35,0.02c0.18,0,0.35-0.02,0.51-0.05c0.16-0.03,0.31-0.08,0.43-0.15c0.12-0.07,0.22-0.17,0.29-0.29
			c0.07-0.12,0.11-0.28,0.11-0.47c0-0.15-0.03-0.28-0.09-0.38c-0.06-0.1-0.15-0.18-0.25-0.25c-0.1-0.07-0.23-0.12-0.36-0.16
			c-0.13-0.04-0.28-0.08-0.43-0.11c-0.2-0.04-0.4-0.1-0.59-0.16c-0.19-0.06-0.36-0.14-0.51-0.24c-0.15-0.1-0.27-0.23-0.36-0.4
			c-0.09-0.16-0.14-0.37-0.14-0.62c0-0.26,0.05-0.49,0.15-0.67c0.09-0.19,0.23-0.34,0.39-0.47c0.16-0.12,0.35-0.21,0.56-0.27
			c0.21-0.06,0.44-0.09,0.68-0.09c0.27,0,0.53,0.03,0.77,0.08c0.24,0.05,0.45,0.12,0.65,0.21v0.58c-0.21-0.09-0.43-0.16-0.66-0.22
			c-0.23-0.05-0.47-0.08-0.73-0.09c-0.2,0-0.36,0.02-0.51,0.06c-0.14,0.04-0.26,0.1-0.36,0.18c-0.09,0.08-0.16,0.17-0.21,0.28
			C274.27,152.3,274.25,152.42,274.25,152.56z"/>
		<path class="st1" d="M280.18,157.44h-0.56v-7.34h0.56V157.44z"/>
		<path class="st1" d="M283.02,156.34v-5.14h0.62v5.14H283.02z"/>
		<path class="st1" d="M287.59,154.06c0.31,0.45,0.63,0.92,0.93,1.4h0.03c-0.03-0.5-0.05-1.01-0.05-1.53v-2.73h0.63v5.14h-0.63
			l-2.02-2.87c-0.35-0.5-0.66-0.96-0.93-1.4h-0.02c0.03,0.47,0.05,1.02,0.05,1.64v2.62h-0.63v-5.14h0.62L287.59,154.06z"/>
		<path class="st1" d="M290.93,152.56c0,0.15,0.03,0.28,0.09,0.37c0.06,0.1,0.14,0.18,0.25,0.25c0.1,0.06,0.22,0.12,0.36,0.16
			c0.14,0.04,0.28,0.08,0.42,0.11c0.2,0.05,0.4,0.1,0.59,0.16c0.19,0.06,0.36,0.14,0.51,0.24c0.15,0.1,0.27,0.24,0.36,0.41
			c0.1,0.17,0.14,0.38,0.14,0.64c0,0.27-0.05,0.5-0.15,0.69c-0.1,0.19-0.24,0.35-0.42,0.48c-0.18,0.12-0.39,0.21-0.63,0.28
			c-0.24,0.06-0.51,0.09-0.8,0.09c-0.13,0-0.27-0.01-0.41-0.03c-0.14-0.01-0.27-0.04-0.4-0.07c-0.13-0.03-0.24-0.06-0.34-0.09
			c-0.1-0.04-0.18-0.07-0.24-0.11v-0.57c0.09,0.04,0.2,0.09,0.31,0.13c0.11,0.04,0.23,0.07,0.36,0.1c0.12,0.03,0.25,0.05,0.37,0.06
			c0.13,0.02,0.25,0.02,0.35,0.02c0.18,0,0.35-0.02,0.51-0.05c0.16-0.03,0.31-0.08,0.43-0.15c0.12-0.07,0.22-0.17,0.29-0.29
			c0.07-0.12,0.11-0.28,0.11-0.47c0-0.15-0.03-0.28-0.09-0.38c-0.06-0.1-0.14-0.18-0.25-0.25c-0.11-0.07-0.23-0.12-0.36-0.16
			c-0.14-0.04-0.28-0.08-0.43-0.11c-0.2-0.04-0.39-0.1-0.58-0.16c-0.19-0.06-0.36-0.14-0.51-0.24c-0.15-0.1-0.27-0.23-0.36-0.4
			c-0.09-0.16-0.14-0.37-0.14-0.62c0-0.26,0.05-0.49,0.14-0.67c0.1-0.19,0.23-0.34,0.39-0.47c0.16-0.12,0.35-0.21,0.56-0.27
			c0.21-0.06,0.44-0.09,0.68-0.09c0.28,0,0.53,0.03,0.77,0.08c0.24,0.05,0.45,0.12,0.65,0.21v0.58c-0.21-0.09-0.43-0.16-0.66-0.22
			c-0.22-0.05-0.47-0.08-0.73-0.09c-0.19,0-0.36,0.02-0.51,0.06c-0.15,0.04-0.26,0.1-0.36,0.18c-0.09,0.08-0.16,0.17-0.21,0.28
			C290.95,152.3,290.93,152.42,290.93,152.56z"/>
		<path class="st1" d="M294.77,156.34v-5.14h0.63v5.14H294.77z"/>
		<path class="st1" d="M300.06,154.26h-1.17v-0.57h1.8v2.49c-0.05,0.03-0.13,0.06-0.24,0.09c-0.1,0.03-0.22,0.06-0.36,0.08
			c-0.13,0.02-0.27,0.04-0.43,0.06c-0.15,0.01-0.3,0.02-0.45,0.02c-0.44,0-0.83-0.06-1.16-0.18c-0.33-0.12-0.62-0.29-0.85-0.51
			c-0.23-0.22-0.4-0.49-0.52-0.8c-0.12-0.32-0.18-0.67-0.18-1.05c0-0.42,0.07-0.8,0.19-1.15c0.13-0.34,0.32-0.63,0.56-0.88
			c0.24-0.24,0.54-0.43,0.89-0.56c0.35-0.13,0.73-0.2,1.14-0.2c0.11,0,0.22,0,0.34,0.01c0.11,0.01,0.22,0.02,0.32,0.04
			c0.1,0.02,0.2,0.04,0.28,0.06c0.08,0.02,0.16,0.05,0.22,0.07v0.55c-0.15-0.05-0.33-0.1-0.53-0.13c-0.2-0.03-0.4-0.05-0.6-0.05
			c-0.29,0-0.57,0.04-0.83,0.13c-0.27,0.09-0.5,0.22-0.7,0.4c-0.2,0.18-0.36,0.41-0.48,0.68c-0.12,0.27-0.18,0.59-0.18,0.95
			c0,0.36,0.05,0.67,0.15,0.92c0.1,0.26,0.24,0.47,0.42,0.64c0.18,0.17,0.41,0.29,0.67,0.37c0.26,0.08,0.55,0.12,0.87,0.12
			c0.15,0,0.3-0.01,0.44-0.02c0.14-0.01,0.27-0.04,0.38-0.06V154.26z"/>
		<path class="st1" d="M302.57,153.42h2.69v-2.22h0.63v5.14h-0.63v-2.35h-2.69v2.35h-0.63v-5.14h0.63V153.42z"/>
		<path class="st1" d="M309.04,156.34h-0.63v-4.57h-1.72v-0.56h4.06v0.56h-1.72V156.34z"/>
	</g>
</g>
<g id="nousystemsinc">
	<g>
		<path class="st1" d="M171.58,143.15c1.26,0.21,3.05,0.42,5.5,0.42c3.33,0,5.15-0.49,5.15-1.68c0-0.63-0.42-1.05-1.51-1.33
			c-2.13-0.56-5.01-0.77-7.04-1.79c-1.37-0.7-2.13-1.61-2.13-3.57c0-3.43,4.17-5.32,9.52-5.32c1.44,0,2.84,0.14,4.27,0.35v3.78
			c-1.23-0.21-2.77-0.35-4.94-0.35c-2.52,0-4.13,0.14-4.13,1.37c0,0.59,0.31,0.81,1.82,1.09c2.21,0.38,4.37,0.8,6.12,1.4
			c1.82,0.63,2.63,2.28,2.63,3.92c0,5.29-5.81,6.02-9.84,6.02c-2.41,0-4.2-0.18-5.43-0.38V143.15z"/>
		<path class="st1" d="M189.19,150.85c0.42,0.04,0.77,0.07,1.12,0.07c2.66,0,3.47-0.8,4.55-4.03l-7.04-16.59h5.21l4.06,10.78
			l3.68-10.78h5.11l-7.49,19.29c-1.22,3.22-3.18,5.11-7.7,5.11c-0.46,0-0.98,0-1.51-0.07V150.85z"/>
		<path class="st1" d="M207.11,143.15c1.26,0.21,3.04,0.42,5.5,0.42c3.32,0,5.14-0.49,5.14-1.68c0-0.63-0.42-1.05-1.51-1.33
			c-2.13-0.56-5-0.77-7.04-1.79c-1.37-0.7-2.13-1.61-2.13-3.57c0-3.43,4.17-5.32,9.52-5.32c1.43,0,2.83,0.14,4.27,0.35v3.78
			c-1.22-0.21-2.77-0.35-4.94-0.35c-2.52,0-4.13,0.14-4.13,1.37c0,0.59,0.32,0.81,1.82,1.09c2.21,0.38,4.38,0.8,6.13,1.4
			c1.82,0.63,2.63,2.28,2.63,3.92c0,5.29-5.81,6.02-9.84,6.02c-2.42,0-4.2-0.18-5.43-0.38V143.15z"/>
		<path class="st1" d="M234.52,146.65c-0.56,0.21-1.61,0.39-2.73,0.39c-3.99,0-6.76-2.45-6.76-6.79V125.3h4.76v5.01h4.2v3.68h-4.2
			v6.27c0,1.58,0.91,2.77,2.49,2.77c0.98,0,1.61-0.14,2.24-0.39V146.65z"/>
		<path class="st1" d="M253.31,146.97c-0.95,0.17-2.52,0.49-6.2,0.49c-6.3,0-10.64-2.35-10.64-8.96c0-4.52,3.71-8.61,9.17-8.61
			c4.24,0,7.81,2.35,7.81,7.74c0,0.42,0,1.05-0.04,1.54h-12.46c0.24,3.47,2.7,4.34,6.62,4.34c3.01,0,4.94-0.25,5.74-0.49V146.97z
			 M248.66,136.08c0-1.54-1.05-2.8-3.12-2.8c-2.06,0-3.5,1.09-4.16,2.8H248.66z"/>
		<path class="st1" d="M277.81,147.04V136.5c0-2.13-0.84-2.97-2.9-2.97c-1.96,0-2.87,0.77-2.94,2.66v10.85h-4.48V136.5
			c0-2.13-0.88-2.97-2.94-2.97c-2.07,0-2.91,0.84-2.91,2.97v10.54h-4.65v-11.03c0-4.2,2.9-6.13,7.6-6.13c2.31,0,4.03,0.7,5.25,1.71
			c1.19-0.98,2.87-1.71,5.11-1.71c4.69,0,7.6,1.93,7.6,6.13v11.03H277.81z"/>
		<path class="st1" d="M285.58,143.15c1.26,0.21,3.04,0.42,5.5,0.42c3.32,0,5.14-0.49,5.14-1.68c0-0.63-0.42-1.05-1.5-1.33
			c-2.14-0.56-5.01-0.77-7.04-1.79c-1.37-0.7-2.13-1.61-2.13-3.57c0-3.43,4.17-5.32,9.52-5.32c1.44,0,2.84,0.14,4.27,0.35v3.78
			c-1.22-0.21-2.76-0.35-4.94-0.35c-2.52,0-4.13,0.14-4.13,1.37c0,0.59,0.31,0.81,1.82,1.09c2.21,0.38,4.38,0.8,6.13,1.4
			c1.82,0.63,2.63,2.28,2.63,3.92c0,5.29-5.81,6.02-9.84,6.02c-2.42,0-4.2-0.18-5.43-0.38V143.15z"/>
	</g>
	<g>
		<path class="st1" d="M302.28,147.04c-0.64,0-1.13-0.41-1.13-1.06c0-0.62,0.48-1.04,1.13-1.04c0.65,0,1.16,0.41,1.16,1.06
			C303.44,146.61,302.93,147.04,302.28,147.04z M310.79,146.94h-6.58v-1.87h6.58V146.94z"/>
		<path class="st1" d="M310.79,139.13h-4.14c-0.84,0-1.17,0.34-1.17,1.17c0,0.83,0.33,1.17,1.17,1.17h4.14v1.84h-4.33
			c-1.65,0-2.41-1.16-2.41-3.03c0-1.87,0.76-3.03,2.41-3.03h4.33V139.13z"/>
		<path class="st1" d="M310.84,130.25c0.06,0.39,0.11,0.9,0.11,1.42c0,2.48-0.92,4.18-3.28,4.18c-2.46,0-3.63-1.72-3.63-4.16
			c0-0.52,0.06-1.02,0.11-1.4h1.47c-0.07,0.33-0.11,0.67-0.11,1.23c0,1.59,0.63,2.46,2.11,2.46c1.3,0,1.86-0.87,1.86-2.49
			c0-0.54-0.04-0.92-0.11-1.24H310.84z"/>
	</g>
	<g>
		<path class="st2" d="M123.92,147.04V136.5c0-2.13-0.88-2.97-2.98-2.97c-2.1,0-2.98,0.84-2.98,2.97v10.54h-4.69v-11.03
			c0-4.2,2.94-6.13,7.7-6.13c4.76,0,7.7,1.93,7.7,6.13v11.03H123.92z"/>
		<path class="st2" d="M132.24,138.67c0-5.15,3.75-8.79,8.79-8.79c5.04,0,8.79,3.64,8.79,8.79c0,5.15-3.75,8.79-8.79,8.79
			C135.99,147.46,132.24,143.82,132.24,138.67z M145.06,138.67c0-3.33-1.58-5.04-4.03-5.04c-2.45,0-4.03,1.71-4.03,5.04
			c0,3.33,1.58,5.04,4.03,5.04C143.48,143.71,145.06,142,145.06,138.67z"/>
		<path class="st2" d="M163.85,130.3h4.69v11.03c0,4.2-3.08,6.13-7.6,6.13c-4.52,0-7.6-1.93-7.6-6.13V130.3h4.76v10.54
			c0,2.14,0.84,2.98,2.87,2.98s2.87-0.84,2.87-2.98V130.3z"/>
	</g>
</g>
<g id="icon">
	<path class="st1" d="M71.47,113.07c10.78,0,20.09,6.37,24.39,15.53h5.93c-4.62-12.27-16.46-21.03-30.32-21.03
		c-14.97,0-27.6,10.2-31.31,24.01C41.89,129.06,50.02,113.07,71.47,113.07z"/>
	<path class="st2" d="M44.54,140.01c0.02-1.21,0.44-7.15,7.14-7.15c2.56,0,4.2,0.87,5.26,2.01c1.71,1.85,1.88,4.41,1.89,5.14
		c0,0.86,0.1,1.79,0.31,2.75c1.01,4.68,4.63,9.89,12.33,9.89c3.41,0,6.01-1.02,7.95-2.56c-0.04-0.05-0.08-0.1-0.12-0.14
		c-1.12-1.41-1.99-3.05-2.57-4.79c-1.06,1.14-2.7,2.01-5.26,2.01c-4.2,0-5.94-2.34-6.65-4.38c-0.42-1.21-0.49-2.31-0.49-2.76
		c0,0,0-0.01,0-0.01c0-2.5-0.82-5.6-2.75-8.1c-0.55-0.72-1.2-1.38-1.94-1.98c-1.94-1.54-4.54-2.56-7.95-2.56
		c-0.5,0-0.97,0.03-1.44,0.07c-0.18,0.02-0.36,0.04-0.54,0.06c-0.25,0.03-0.5,0.08-0.74,0.12c-0.55,0.1-1.09,0.23-1.59,0.39l0,0
		c-6.02,1.92-8.32,7.8-8.32,11.99c0,3.45,0.55,6.77,1.55,9.89h5.84C45.22,146.83,44.55,143.5,44.54,140.01z"/>
	<path class="st2" d="M98.4,139.99c-0.02,1.21-0.44,7.15-7.14,7.15c-2.56,0-4.2-0.87-5.26-2.01c-1.71-1.85-1.88-4.41-1.89-5.14
		c0-0.86-0.1-1.79-0.31-2.75c-1.01-4.68-4.63-9.89-12.33-9.89c-3.41,0-6.01,1.02-7.95,2.56c0.04,0.05,0.08,0.1,0.12,0.14
		c1.12,1.41,1.99,3.05,2.57,4.79c1.06-1.14,2.7-2.01,5.26-2.01c4.2,0,5.94,2.34,6.65,4.38c0.42,1.21,0.49,2.31,0.49,2.76
		c0,0,0,0.01,0,0.01c0,2.5,0.82,5.6,2.75,8.1c0.55,0.72,1.2,1.38,1.94,1.98c1.94,1.54,4.54,2.56,7.95,2.56
		c0.5,0,0.98-0.03,1.44-0.07c0.18-0.02,0.36-0.04,0.53-0.06c0.26-0.03,0.51-0.08,0.76-0.12c0.55-0.1,1.08-0.23,1.58-0.39l0,0
		c6.02-1.92,8.32-7.8,8.32-11.99c0-3.45-0.55-6.77-1.55-9.89h-5.84C97.72,133.17,98.4,136.5,98.4,139.99z"/>
	<path class="st1" d="M71.47,166.92c-10.78,0-20.09-6.37-24.39-15.53h-5.93c4.62,12.27,16.46,21.03,30.32,21.03
		c14.97,0,27.6-10.2,31.31-24.01C101.05,150.94,92.92,166.92,71.47,166.92z"/>
</g>
</svg>
