<?xml version="1.0" encoding="utf-8"?>
<!-- Generator: Adobe Illustrator 24.0.3, SVG Export Plug-In . SVG Version: 6.00 Build 0)  -->
<svg version="1.1" xmlns="http://www.w3.org/2000/svg" xmlns:xlink="http://www.w3.org/1999/xlink" x="0px" y="0px"
	 viewBox="0 0 695.35 231.68" style="enable-background:new 0 0 695.35 231.68;" xml:space="preserve">
<style type="text/css">
	.st0{fill:#939598;}
	.st1{fill:#007BC3;}
	.st2{fill:#FFFFFF;}
</style>
<g id="BASE_0k">
	<g id="XMLID_21_">
		<defs>
			<rect id="XMLID_22_" x="10.07" y="10.07" width="211.53" height="211.54"/>
		</defs>
		<use xlink:href="#XMLID_22_"  style="overflow:visible;fill:#FFFFFF;"/>
		<clipPath id="XMLID_6_">
			<use xlink:href="#XMLID_22_"  style="overflow:visible;"/>
		</clipPath>
	</g>
</g>
<g id="SMMS">
	<g id="XMLID_209_">
		<path id="XMLID_258_" class="st0" d="M283.78,134.46c-0.72-6.63-5.13-9.49-11.5-9.49c-5.2,0-10.4,1.89-10.4,7.93
			c0,5.72,7.41,6.56,14.88,8.25c7.41,1.69,14.82,4.29,14.82,13.39c0,9.88-9.68,13.84-18.13,13.84c-10.4,0-19.17-5.07-19.17-16.38
			h5.85c0,7.8,6.5,11.18,13.52,11.18c5.59,0,11.76-1.75,11.76-8.45c0-6.37-7.41-7.47-14.82-9.1c-7.41-1.62-14.88-3.77-14.88-12.28
			c0-9.42,8.38-13.58,16.83-13.58c9.49,0,16.7,4.48,17.09,14.69H283.78z"/>
		<path id="XMLID_256_" class="st0" d="M295.47,120.88h8.45l14.62,38.99l14.69-38.99h8.45v46.4h-5.85v-38.6h-0.13l-14.49,38.6h-5.26
			l-14.49-38.6h-0.13v38.6h-5.85V120.88z"/>
		<path id="XMLID_253_" class="st0" d="M360.22,120.88h6.82l18.13,46.4h-6.82l-5.07-13.97h-19.62l-5.2,13.97h-6.37L360.22,120.88z
			 M355.61,148.1h15.73l-7.73-21.64h-0.13L355.61,148.1z"/>
		<path id="XMLID_250_" class="st0" d="M385.59,120.88h21.83c8.71,0,14.1,4.74,14.1,12.15c0,5.59-2.47,10.2-8.06,11.76v0.13
			c5.39,1.04,6.5,5.01,6.95,9.55c0.39,4.55,0.13,9.62,2.73,12.8h-6.89c-1.75-1.89-0.78-6.89-1.69-11.44
			c-0.65-4.55-1.75-8.38-7.73-8.38h-15.07v19.82h-6.18V120.88z M404.63,142.26c5.79,0,10.72-1.5,10.72-8.25
			c0-4.55-2.47-7.93-8.25-7.93h-15.33v16.18H404.63z"/>
		<path id="XMLID_248_" class="st0" d="M438.09,126.08h-15.47v-5.2h37.11v5.2h-15.47v41.2h-6.17V126.08z"/>
		<path id="XMLID_246_" class="st0" d="M480.63,120.88h8.45l14.62,38.99l14.69-38.99h8.45v46.4h-5.85v-38.6h-0.13l-14.49,38.6h-5.26
			l-14.49-38.6h-0.13v38.6h-5.85V120.88z"/>
		<path id="XMLID_243_" class="st0" d="M553.16,119.77c14.75,0,22.23,11.7,22.23,24.3s-7.47,24.3-22.23,24.3
			c-14.75,0-22.23-11.7-22.23-24.3S538.41,119.77,553.16,119.77z M553.16,163.18c11.31,0,16.05-9.75,16.05-19.11
			c0-9.36-4.74-19.11-16.05-19.11c-11.31,0-16.05,9.75-16.05,19.11C537.11,153.43,541.85,163.18,553.16,163.18z"/>
		<path id="XMLID_241_" class="st0" d="M579.29,120.88h6.56l24.43,37.62h0.13v-37.62h5.85v46.4h-6.76l-24.24-37.24h-0.13v37.24
			h-5.85V120.88z"/>
		<path id="XMLID_239_" class="st0" d="M620.44,120.88h32.04v5.2h-25.86v14.75h24.11v5.2h-24.11v16.05h26.06v5.2h-32.23V120.88z"/>
		<path id="XMLID_237_" class="st0" d="M677.61,148.3v18.97h-6.17V148.3l-17.93-27.42h7.34l13.91,22.09l13.58-22.09h7.02
			L677.61,148.3z"/>
		<path id="XMLID_235_" class="st0" d="M682.62,160.06h7.22v7.21h-7.22V160.06z"/>
		<path id="XMLID_233_" class="st1" d="M257.07,175.21h8.45l14.62,38.99l14.69-38.99h8.45v46.4h-5.85v-38.6h-0.13l-14.49,38.6h-5.26
			l-14.49-38.6h-0.13v38.6h-5.85V175.21z"/>
		<path id="XMLID_230_" class="st1" d="M321.82,175.21h6.82l18.13,46.4h-6.82l-5.07-13.97h-19.62l-5.2,13.97h-6.37L321.82,175.21z
			 M317.2,202.44h15.73l-7.73-21.64h-0.13L317.2,202.44z"/>
		<path id="XMLID_227_" class="st1" d="M347.19,175.21h15.92c14.3,0,22.29,7.15,22.29,22.09c0,15.53-6.82,24.3-22.29,24.3h-15.92
			V175.21z M353.36,216.41h10.27c4.22,0,15.6-1.17,15.6-18.26c0-11.05-4.09-17.74-15.47-17.74h-10.4V216.41z"/>
		<path id="XMLID_225_" class="st1" d="M388.36,175.21h32.04v5.2h-25.86v14.75h24.11v5.2h-24.11v16.05h26.06v5.2h-32.23V175.21z"/>
		<path id="XMLID_223_" class="st1" d="M469.98,188.79c-0.72-6.63-5.13-9.49-11.5-9.49c-5.2,0-10.4,1.89-10.4,7.93
			c0,5.72,7.41,6.56,14.88,8.25c7.41,1.69,14.82,4.29,14.82,13.39c0,9.88-9.68,13.84-18.13,13.84c-10.4,0-19.17-5.07-19.17-16.38
			h5.85c0,7.8,6.5,11.18,13.52,11.18c5.59,0,11.76-1.75,11.76-8.45c0-6.37-7.41-7.47-14.82-9.1c-7.41-1.62-14.88-3.77-14.88-12.28
			c0-9.42,8.38-13.58,16.83-13.58c9.49,0,16.7,4.48,17.09,14.69H469.98z"/>
		<path id="XMLID_221_" class="st1" d="M480.65,175.21h6.17v46.4h-6.17V175.21z"/>
		<path id="XMLID_219_" class="st1" d="M490.97,175.21h8.45l14.62,38.99l14.69-38.99h8.45v46.4h-5.85v-38.6h-0.13l-14.49,38.6h-5.26
			l-14.49-38.6h-0.13v38.6h-5.85V175.21z"/>
		<path id="XMLID_216_" class="st1" d="M541.05,175.21h20.34c9.23,0,14.23,5.13,14.23,13.71c0,8.58-5.01,13.78-14.23,13.71h-14.17
			v18.97h-6.18V175.21z M547.23,197.44h12.09c6.95,0.07,10.14-2.99,10.14-8.51c0-5.52-3.18-8.51-10.14-8.51h-12.09V197.44z"/>
		<path id="XMLID_214_" class="st1" d="M578.63,175.21h6.18v41.2h24.56v5.2h-30.74V175.21z"/>
		<path id="XMLID_212_" class="st1" d="M612.82,175.21h32.04v5.2H619v14.75h24.11v5.2H619v16.05h26.06v5.2h-32.23V175.21z"/>
		<path id="XMLID_210_" class="st1" d="M648.65,214.4h7.22v7.21h-7.22V214.4z"/>
	</g>
	<path id="XMLID_263_" class="st1" d="M255.51,21.29c-0.32,0.8-0.75,1.51-1.31,2.09c-0.56,0.59-1.21,1.04-1.95,1.37
		c-0.74,0.32-1.54,0.48-2.4,0.48c-0.96,0-1.82-0.17-2.57-0.52c-0.76-0.35-1.4-0.83-1.94-1.42c-0.54-0.6-0.95-1.3-1.24-2.1
		c-0.29-0.8-0.43-1.66-0.43-2.57c0-0.97,0.16-1.87,0.47-2.68c0.32-0.81,0.75-1.51,1.31-2.1c0.56-0.59,1.21-1.04,1.96-1.36
		c0.75-0.32,1.56-0.48,2.43-0.48c0.86,0,1.66,0.16,2.4,0.48c0.74,0.32,1.39,0.77,1.95,1.36c0.56,0.59,0.99,1.29,1.31,2.1
		c0.31,0.81,0.47,1.71,0.47,2.68C255.98,19.59,255.82,20.48,255.51,21.29 M257.06,15.32c-0.42-0.99-0.99-1.83-1.71-2.53
		c-0.73-0.7-1.56-1.25-2.51-1.63s-1.94-0.58-2.98-0.58c-1.06,0-2.07,0.2-3.02,0.58c-0.96,0.38-1.8,0.93-2.52,1.63
		c-0.72,0.7-1.29,1.54-1.71,2.53c-0.42,0.99-0.63,2.08-0.63,3.28c0,1.14,0.2,2.2,0.59,3.18c0.39,0.98,0.93,1.82,1.62,2.54
		c0.7,0.72,1.52,1.28,2.49,1.68c0.97,0.41,2.03,0.61,3.19,0.61c1.04,0,2.03-0.19,2.98-0.58c0.95-0.38,1.79-0.93,2.51-1.62
		c0.72-0.7,1.29-1.55,1.71-2.53c0.42-0.99,0.63-2.08,0.63-3.28C257.69,17.4,257.48,16.31,257.06,15.32"/>
	<path id="XMLID_260_" class="st1" d="M249.89,18.15h-1.63v-2.59h1.75l0.66,0.03l0.62,0.16l0.46,0.36l0.18,0.64l-0.17,0.76
		l-0.45,0.42l-0.65,0.18L249.89,18.15z M252.74,18.62c0.44-0.37,0.66-0.95,0.66-1.76c0-0.9-0.27-1.55-0.82-1.95
		c-0.54-0.4-1.35-0.6-2.42-0.6h-3.36v8.88h1.45v-3.79h1.37l2.29,3.79h1.65l-2.49-3.9C251.75,19.21,252.3,18.99,252.74,18.62"/>
</g>
<g id="Gradient">
	<g id="XMLID_72_">
		<defs>
			<rect id="XMLID_71_" x="10.07" y="10.07" width="211.53" height="211.54"/>
		</defs>
		<linearGradient id="XMLID_7_" gradientUnits="userSpaceOnUse" x1="131.1766" y1="131.5613" x2="10.1766" y2="7.5613">
			<stop  offset="0" style="stop-color:#0063A7"/>
			<stop  offset="0.2397" style="stop-color:#0063A7"/>
			<stop  offset="0.3403" style="stop-color:#0068AB"/>
			<stop  offset="0.528" style="stop-color:#3477B5"/>
			<stop  offset="0.7802" style="stop-color:#6C95C9"/>
			<stop  offset="1" style="stop-color:#9BBAE2"/>
		</linearGradient>
		<use xlink:href="#XMLID_71_"  style="overflow:visible;fill:url(#XMLID_7_);"/>
		<clipPath id="XMLID_8_">
			<use xlink:href="#XMLID_71_"  style="overflow:visible;"/>
		</clipPath>
	</g>
</g>
<g id="FRAME">
	<g id="XMLID_1_">
		<polygon id="XMLID_2_" class="st2" points="43.78,141.14 43.95,141.14 58.76,181.31 69.01,181.31 83.82,140.72 83.99,140.72 
			83.99,181.31 96.43,181.31 96.43,120.87 79.97,120.87 64.35,160.89 64.18,160.89 47.81,120.87 31.34,120.87 31.34,181.31 
			43.78,181.31 		"/>
		<path id="XMLID_12_" class="st2" d="M0,0v231.68h231.68V0H0z M221.61,201.47l-38.27-55.01l17.79-25.58h-14.02l-10.78,15.51
			l-10.79-15.51h-14.01l17.79,25.58l-17.05,24.51l-19.66-50.09h-11.39l-23.97,60.44h13.37l4.74-13.46h22.6l4.57,13.46h16.56
			l17.24-24.78l45.26,65.07H10.07V10.07h211.54V201.47z M134.5,157.95h-15.66l7.87-22.18h0.17L134.5,157.95z"/>
	</g>
	<g id="XMLID_20_">
		<path id="XMLID_26_" class="st1" d="M662.74,185.92c-0.32,0.8-0.75,1.51-1.31,2.09c-0.56,0.59-1.21,1.04-1.95,1.37
			c-0.74,0.32-1.54,0.48-2.4,0.48c-0.96,0-1.82-0.17-2.57-0.52c-0.76-0.35-1.4-0.83-1.94-1.42c-0.54-0.6-0.95-1.3-1.24-2.1
			c-0.29-0.8-0.43-1.66-0.43-2.57c0-0.97,0.16-1.87,0.47-2.68c0.32-0.81,0.75-1.51,1.31-2.1c0.56-0.59,1.21-1.04,1.96-1.36
			c0.75-0.32,1.56-0.48,2.43-0.48c0.86,0,1.66,0.16,2.4,0.48c0.74,0.32,1.39,0.77,1.95,1.36c0.56,0.59,0.99,1.29,1.31,2.1
			c0.31,0.81,0.47,1.71,0.47,2.68C663.21,184.22,663.05,185.11,662.74,185.92 M664.29,179.95c-0.42-0.99-0.99-1.83-1.71-2.53
			c-0.73-0.7-1.56-1.25-2.51-1.63c-0.95-0.38-1.94-0.58-2.98-0.58c-1.06,0-2.07,0.2-3.02,0.58c-0.96,0.38-1.8,0.93-2.52,1.63
			c-0.72,0.7-1.29,1.54-1.71,2.53c-0.42,0.99-0.63,2.08-0.63,3.28c0,1.14,0.2,2.2,0.59,3.18c0.39,0.98,0.93,1.82,1.62,2.54
			c0.7,0.72,1.52,1.28,2.49,1.68c0.97,0.41,2.03,0.61,3.19,0.61c1.04,0,2.03-0.19,2.98-0.58c0.95-0.38,1.79-0.93,2.51-1.62
			c0.72-0.7,1.29-1.55,1.71-2.53c0.42-0.99,0.63-2.08,0.63-3.28C664.92,182.02,664.71,180.93,664.29,179.95"/>
		<path id="XMLID_23_" class="st1" d="M657.12,182.78h-1.63v-2.59h1.75l0.66,0.03l0.62,0.16l0.46,0.36l0.18,0.64l-0.17,0.76
			l-0.45,0.42l-0.65,0.18L657.12,182.78z M659.97,183.25c0.44-0.37,0.66-0.95,0.66-1.76c0-0.9-0.27-1.55-0.82-1.95
			c-0.54-0.4-1.35-0.6-2.42-0.6h-3.36v8.88h1.45v-3.79h1.37l2.29,3.79h1.65l-2.49-3.9C658.98,183.84,659.53,183.62,659.97,183.25"/>
	</g>
</g>
</svg>
