<?xml version="1.0" encoding="utf-8"?>
<!-- Generator: Adobe Illustrator 23.0.3, SVG Export Plug-In . SVG Version: 6.00 Build 0)  -->
<svg version="1.1" id="Layer_1" xmlns="http://www.w3.org/2000/svg" xmlns:xlink="http://www.w3.org/1999/xlink" x="0px" y="0px"
	 viewBox="0 0 346 147" style="enable-background:new 0 0 346 147;" xml:space="preserve">
<style type="text/css">
	.st0{fill:#FFD24F;}
	.st1{font-family:'Arial-Black';}
	.st2{font-size:9.5991px;}
</style>
<path d="M34.87,32.77h22.11l3.23,26.93h0.55c0.8-2.24,1.63-4.62,2.73-6.8l10.34-20.13h21.87l0.36,51.28H75.28l2.23-28.09h-0.39
	c-0.7,1.7-1.42,3.47-2.34,5.1L62.04,84.04H49.49l-3.72-21.69c-0.23-2.18-0.41-4.22-0.17-6.39H44.9c-0.53,2.04-1.07,4.15-1.68,6.19
	l-6.5,21.9H15.95L34.87,32.77z"/>
<path d="M130.39,63.57c-1.85-1.57-4.04-2.99-6.97-2.99c-3.73,0-6.81,2.11-7.41,5.37c-0.53,2.86,1.74,5.17,5.06,5.17
	c3.17,0,5.8-1.36,8.44-2.79l-3.61,14.83c-3.33,0.88-7.05,1.7-10.62,1.7c-13.63,0-22.16-6.6-19.93-18.71
	c1.97-10.68,12.63-19.04,25.23-19.04c4.28,0,8.59,0.68,12.5,1.84L130.39,63.57z"/>
<path d="M139.71,32.77h21.5l-6.36,34.82h18.04l-3.01,16.46h-39.55L139.71,32.77z"/>
<path d="M188.96,68.95c-0.58,2.93-0.63,6.19,3.95,6.19c2.29,0,4.24-1.29,5-2.99h21.29c-4.6,8.71-17.52,12.72-27.88,12.72
	c-14.17,0-25.99-5.85-23.53-18.3c2.37-11.97,15.38-19.45,29.72-19.45c16.04,0,27.03,8.3,23.26,21.83H188.96z M200.7,61.47
	c0.48-2.45-1.28-4.7-4.42-4.7c-3.31,0-5.35,2.18-5.85,4.7H200.7z"/>
<path d="M275.29,66.43c-2.36,11.97-16.82,18.43-30.86,18.43c-14.04,0-25.96-6.46-23.6-18.43c2.49-12.65,16.24-19.32,31.03-19.32
	C266.66,47.11,277.78,53.78,275.29,66.43z M242.02,66.16c-0.56,2.86,1.73,4.96,5.11,4.96c3.38,0,6.51-2.11,7.07-4.96
	c0.57-2.92-1.41-5.3-5.04-5.3C245.52,60.86,242.6,63.23,242.02,66.16z"/>
<path d="M301.46,78.67h-0.47c-4.03,3.68-9.26,6.19-14.66,6.19c-11.27,0-15.4-9.93-13.83-18.57c1.63-8.98,9.05-19.18,20.79-19.18
	c4.69,0,9.28,2.32,11.48,5.65h0.71l0.63-8.64l2.78-15.23h20.18l-10.05,55.15h-18.93L301.46,78.67z M292.43,65.96
	c-0.49,2.72,0.86,5.17,4.22,5.17c3.13,0,5.76-2.86,6.21-5.3c0.46-2.52-1.28-4.96-4.34-4.96C295.16,60.86,292.91,63.3,292.43,65.96z"
	/>
<polygon class="st0" points="113.02,138.19 137.97,138.19 170.33,91.51 149.99,91.51 "/>
<polygon class="st0" points="193.44,42.52 201.76,42.52 210.54,32.35 202.22,32.35 "/>
<polygon class="st0" points="205.91,27.73 213.31,27.73 217.24,23.34 210.54,23.34 "/>
<polygon class="st0" points="212.94,19.26 218.94,19.26 222.13,15.69 216.69,15.69 "/>
<g>
	<path d="M190.88,96.53c-0.67-0.65-1.6-1.08-2.63-1.08c-0.78,0-1.88,0.45-2.03,1.36c-0.15,0.95,0.94,1.32,1.63,1.55l1.03,0.32
		c2.16,0.67,3.73,1.81,3.31,4.45c-0.26,1.62-0.91,3.28-2.38,4.38c-1.44,1.08-3.22,1.53-4.86,1.53c-2.05,0-3.95-0.69-5.42-1.86
		l2.35-3.41c0.91,0.93,2.04,1.68,3.49,1.68c0.99,0,2.13-0.5,2.31-1.64c0.19-1.19-1.41-1.6-2.27-1.86c-2.54-0.76-4.17-1.45-3.67-4.6
		c0.52-3.3,3.21-5.46,6.47-5.46c1.64,0,3.56,0.52,4.88,1.34L190.88,96.53z"/>
	<path d="M214.42,100.18c-0.83,5.27-5.2,8.98-10.42,8.98c-5.22,0-8.41-3.71-7.58-8.98c0.78-4.92,5.64-8.37,10.32-8.37
		C211.43,91.81,215.2,95.26,214.42,100.18z M200.83,100.2c-0.44,2.81,1.3,4.86,3.83,4.86c2.52,0,4.92-2.05,5.37-4.86
		c0.36-2.24-1.39-4.29-3.92-4.29C203.58,95.91,201.18,97.96,200.83,100.2z"/>
	<path d="M223.88,95.93l-0.43,2.72h4.64l-0.57,3.58h-4.64l-1.01,6.39h-4.23l2.58-16.27h9.34l-0.57,3.58H223.88z"/>
	<path d="M238.4,108.62h-4.23l2.01-12.69h-3.5l0.57-3.58h11.22l-0.57,3.58h-3.5L238.4,108.62z"/>
	<path d="M252.45,102.86h0.04l5.07-10.51h3.37l1.53,10.51h0.04l4.73-10.51h4.4l-7.78,16.27h-4.32l-1.36-9.43h-0.04l-4.69,9.43h-4.29
		l-2.28-16.27h4.4L252.45,102.86z"/>
	<path d="M275.58,105.79l-1.57,2.83h-4.49l8.83-16.27h4.62l3.55,16.27h-4.51l-0.61-2.83H275.58z M279.87,97.38h-0.04l-2.57,5.18
		h3.52L279.87,97.38z"/>
	<path d="M303.96,108.62h-5.27l-3-6.26h-0.04l-0.99,6.26h-4.23L293,92.35h6.32c3.22,0,5.41,1.53,4.86,5.01
		c-0.36,2.24-1.91,4.19-4.29,4.6L303.96,108.62z M296.08,99.64h0.41c1.38,0,2.98-0.26,3.26-2.03c0.28-1.77-1.23-2.03-2.61-2.03
		h-0.41L296.08,99.64z"/>
	<path d="M313.93,95.93l-0.43,2.72h4.77l-0.57,3.58h-4.77l-0.45,2.8h5.03l-0.57,3.58h-9.26l2.58-16.27h9.26l-0.57,3.58H313.93z"/>
</g>
<text transform="matrix(1 0 0 1 321.4948 99.3193)" class="st1 st2">®</text>
</svg>
