<svg id="Layer_1" data-name="Layer 1" xmlns="http://www.w3.org/2000/svg" viewBox="0 0 289.92 84.8"><defs><style>.cls-1{fill:#ed2324;}.cls-2{fill:none;stroke:#000;stroke-width:0.38px;}</style></defs><title>MI_KIIM-RGB Digitial Use ONLY</title><path d="M89.83,16.16a7.41,7.41,0,0,0,7.43-7.43,7.49,7.49,0,0,0-15,0,7.43,7.43,0,0,0,7.54,7.43Z" transform="translate(0 0)"/><path class="cls-1" d="M79,18.8l12.92-.11S93,18.8,93,20.29L80.35,57.2s-.11.57-1.25.57H65.16c-.69,0-.58-1-.58-1L78,19.83s.23-1,1-1Z" transform="translate(0 0)"/><path class="cls-1" d="M22,1.5H75.43a1.88,1.88,0,0,1,1.95,1.86L58.75,57.08s0,.57-1.15.57H43.55c-.69,0-.57-1-.57-1L61,6.68s.69-1.15-.23-1.15H57.26a1.12,1.12,0,0,0-1,.8L38.52,57.08s-.11.57-1.26.57H21.72c-.69,0-.57-1-.57-1L39.21,6.68s.45-1.15-.23-1.15H35.43a.93.93,0,0,0-.91.8L16.81,57.08s-.12.57-1.26.57H.58c-.69,0-.57-1-.57-1L19.09,3.82S20,1.5,22,1.5Z" transform="translate(0 0)"/><path d="M119.61,1l2.08,9.71L124.14,1h7.55l4.6,24.38h-8.41c.71-1.73.57-1.87.14-4.24h0l-1.51-8.49-3,12.73h-6.26l-2.73-13L112.92,21h0c-.51,2.59-.58,2.74.36,4.39h-6.12L111,5.15h0c.43-2.08.35-2.16-.44-4.17h9.07Z" transform="translate(0 0)"/><path d="M155.13,3.28C158,7.09,157.58,17,156.21,20.76a6.84,6.84,0,0,1-5.32,4.81c-2.66.65-8.2.8-11-1.43a7.67,7.67,0,0,1-2.16-3c-1.44-4-1-10.22-.65-12.8s1.22-5.61,4.46-7.12A11,11,0,0,1,145,.4c1.87-.14,7.7-.28,10.14,2.88Zm-10.79,12.3c.08,2.59.29,5,1.59,5.9a1.9,1.9,0,0,0,1.94.14c1.65-.72,1.72-2.73,1.8-5.47.07-1.43.07-2.15.07-3.81-.07-3-.07-6.61-1.94-7.48a2.33,2.33,0,0,0-2.16.22c-1.08.79-1.22,2.8-1.3,4.67-.07,2.31-.07,3.6,0,5.83Z" transform="translate(0 0)"/><path d="M176.84,7.24c-2.09-1.87-1.87-1.66-5.18-1.66h-.29V21.26h0c0,2.16-.14,2.37.86,4.1H164V5.58h0c-3.23,0-3-.21-5.1,1.66h0V1.12h18V7.24Z" transform="translate(0 0)"/><path d="M186.61,1V25.36h-7.34V4.65h0c0-1.94.15-1.87-.93-3.67h8.27Z" transform="translate(0 0)"/><path d="M207.53,2.94c2.87,3.81,2.37,13.66,1.07,17.47a7,7,0,0,1-5.39,4.82c-2.59.65-8.2.79-10.93-1.44a7.92,7.92,0,0,1-2.23-3c-1.37-4-1-10.21-.58-12.8s1.16-5.61,4.46-7.12a11.1,11.1,0,0,1,3.46-.79c1.87-.14,7.69-.29,10.14,2.88ZM196.74,15.23c.07,2.59.29,5,1.58,5.9a1.9,1.9,0,0,0,1.94.14c1.58-.71,1.73-2.73,1.8-5.46.07-1.44.07-2.16.07-3.81-.07-3-.07-6.62-1.94-7.48a2.29,2.29,0,0,0-2.16.21c-1.08.8-1.29,2.81-1.29,4.68a37.69,37.69,0,0,0,0,5.82Z" transform="translate(0 0)"/><path d="M224.86,11.62V1h4.68V25.36h-5.9l-6.33-12.44v7.84h0c0,2.73-.14,2.87.86,4.6h-5.61V4.72h0c0-1.94.08-2-.93-3.74h7.69l5.54,10.64Z" transform="translate(0 0)"/><path d="M116.08,33.38V57.76h-7.41V37.05h0c0-1.94.22-1.87-.86-3.67h8.27Z" transform="translate(0 0)"/><path d="M131.54,44V33.38h4.53V57.76h-5.68L124,45.32v7.84h0c0,2.73-.14,2.88.86,4.6h-5.61V37.12h0c0-1.94.08-2-.93-3.74h7.77L131.54,44Z" transform="translate(0 0)"/><path d="M139.24,37.05c0-1.72.14-1.94-.87-3.67h11.51c2.66,0,5.68-.21,7.26,2.66,2.16,3.67,2.16,15.32.15,18.85-1.8,3.09-4.68,2.87-7.27,2.87H139.24V37.05ZM150.45,52.3c1.23-2.09,1.16-11.44.08-13.31-.87-1.44-2.45-1.29-3.53-1.29h-.43V53.38h0c1.44,0,3.17.21,3.88-1.08Z" transform="translate(0 0)"/><path d="M169.07,33.38V49.92h0c0,1.52-.07,2.31.8,2.95a3,3,0,0,0,1.65.36H173V33.38h7.33V57.76H169c-.93,0-4.53.15-6-1.36s-1.22-3.38-1.22-5.54h0V37.48h0c0-2.23.14-2.3-.86-4.1h8.19Z" transform="translate(0 0)"/><path d="M198.85,39.86c-1.23-1.44-1.73-2-3.46-2.16a19.39,19.39,0,0,0-3.59.07,1.6,1.6,0,0,0-1.58,1.3c-.15.57-.29,2.66.21,3.23.72,1.08,2.23,1,3.24,1h.65c1.87,0,3.88-.22,5,1.94.94,1.58.79,8.49-.22,10.43-1.22,2.37-3.52,2.08-5.46,2.08H183l-.22-6.9h0c1.87,1.58,2.16,2.16,3.88,2.44a23.27,23.27,0,0,0,3.89-.14A1.77,1.77,0,0,0,192,51.94a6.12,6.12,0,0,0-.22-3.17c-.65-.86-1.94-.86-3.16-.86h-.58c-.79,0-3.74.07-4.67-1.87s-1.23-8.77.07-10.79,4-1.87,5.75-1.87h9.64v6.48Z" transform="translate(0 0)"/><path d="M219.33,39.64c-2.09-1.87-1.94-1.65-5.25-1.65h-.29V53.66h0c0,2.16-.14,2.38.94,4.1h-8.27V38h0c-3.24,0-3-.22-5.11,1.65h0V33.53h18v6.11Z" transform="translate(0 0)"/><path d="M238.09,35.33c1.51,1.94,1.58,5.75,1.15,7.76s-.94,3.1-2.81,4h0l4.68,10.71h-9.28c.36-2.23.29-1.94-1-4.74h0l-2.08-4.53v9.27H221.4V37h0a4.9,4.9,0,0,0-.86-3.6h11.87c1.58,0,4.17,0,5.68,1.95Zm-6.62,7.47a8.52,8.52,0,0,0,.07-4.45c-.57-.94-1.72-.8-2.8-.8h0v6.26h0c1.22,0,2.08.15,2.73-1Z" transform="translate(0 0)"/><path d="M251.17,33.38V57.76h-7.34V37.05h0c0-1.94.15-1.87-.93-3.67h8.27Z" transform="translate(0 0)"/><path d="M270.8,33.38V39.5h0c-2.23-2.16-2.23-2-5.32-2h-3.81v4.61h7.84v4.53h-7.84v6.83h4.17c3.23,0,2.73.14,5-1.94h0v6.18H254.33V37.27h0c0-2.16.07-2.16-.86-3.89H270.8Z" transform="translate(0 0)"/><path d="M288.85,39.86c-1.29-1.44-1.8-2-3.45-2.16a19.5,19.5,0,0,0-3.6.07,1.62,1.62,0,0,0-1.65,1.3c-.14.57-.29,2.66.21,3.23.72,1.08,2.31,1,3.31,1h.65c1.8,0,3.81-.22,5,1.94.87,1.58.72,8.49-.28,10.43-1.23,2.37-3.53,2.08-5.47,2.08H273l-.22-6.9h0c1.8,1.58,2.16,2.16,3.82,2.44a24.29,24.29,0,0,0,3.95-.14A1.86,1.86,0,0,0,282,51.94a6.19,6.19,0,0,0-.29-3.17c-.65-.86-1.94-.86-3.09-.86h-.58c-.86,0-3.74.07-4.74-1.87s-1.23-8.77.07-10.79,4.1-1.87,5.82-1.87h9.64v6.48Z" transform="translate(0 0)"/><path d="M52.6,80.59a1.46,1.46,0,0,1-1-.43,8.72,8.72,0,0,1-1.07-2.57l-1.4-4.39L51,71.5l.81-.76A10.59,10.59,0,0,1,53,70a4.36,4.36,0,0,1,1-.48,4,4,0,0,1,.85-.15L54.9,69H50.41l-.1.33a1.2,1.2,0,0,1,.66.25.68.68,0,0,1,.19.46.89.89,0,0,1-.14.47,11,11,0,0,1-1,1L46.9,74.35l.81-2.85a8.31,8.31,0,0,1,.46-1.35,1.7,1.7,0,0,1,.64-.66,1.82,1.82,0,0,1,.86-.17l.1-.33H44.16l-.09.33a1.9,1.9,0,0,1,1,.25.64.64,0,0,1,.27.51,7.6,7.6,0,0,1-.34,1.53l-2,6.93a6.43,6.43,0,0,1-.49,1.34,1.18,1.18,0,0,1-.54.52,2.64,2.64,0,0,1-1,.19l-.1.32h5.8l.09-.32a1.82,1.82,0,0,1-1-.24.67.67,0,0,1-.29-.59,4.27,4.27,0,0,1,.21-1.05l1.25-4.35,1.27,4.06a4.76,4.76,0,0,1,.27,1.25.84.84,0,0,1-.24.62,1.18,1.18,0,0,1-.76.3l-.1.32H52.5Z" transform="translate(0 0)"/><path d="M58,73.93a1.41,1.41,0,0,1,1-.58.45.45,0,0,1,.35.14.52.52,0,0,1,.13.38,3.07,3.07,0,0,1-.3,1.25,4.24,4.24,0,0,1-.7,1.1,3.07,3.07,0,0,1-.84.63,4.66,4.66,0,0,1-1.2.31A8.51,8.51,0,0,1,58,73.93Zm0,3.42a6,6,0,0,0,1.74-.77A4.18,4.18,0,0,0,61,75.25,2.33,2.33,0,0,0,61.39,74a1.16,1.16,0,0,0-.38-.88,1.55,1.55,0,0,0-1.12-.35,5.57,5.57,0,0,0-2.9.87A6.5,6.5,0,0,0,54.7,76a5.66,5.66,0,0,0-.83,2.88,2.52,2.52,0,0,0,.56,1.63,2.5,2.5,0,0,0,2,.7,4.35,4.35,0,0,0,2.12-.52,7.21,7.21,0,0,0,2-1.74l-.26-.24a6.12,6.12,0,0,1-1.44,1,2.78,2.78,0,0,1-1.23.3,1.32,1.32,0,0,1-1-.4,1.42,1.42,0,0,1-.39-1,7.57,7.57,0,0,1,.08-.94A9.43,9.43,0,0,0,58,77.35Z" transform="translate(0 0)"/><path d="M66,73.93a1.41,1.41,0,0,1,1-.58.46.46,0,0,1,.35.14.52.52,0,0,1,.13.38,3.07,3.07,0,0,1-.3,1.25,4.24,4.24,0,0,1-.7,1.1,3.07,3.07,0,0,1-.84.63,4.66,4.66,0,0,1-1.2.31A8.37,8.37,0,0,1,66,73.93Zm0,3.42a6,6,0,0,0,1.74-.77A4.18,4.18,0,0,0,69,75.25,2.42,2.42,0,0,0,69.38,74a1.16,1.16,0,0,0-.38-.88,1.55,1.55,0,0,0-1.12-.35,5.57,5.57,0,0,0-2.9.87A6.5,6.5,0,0,0,62.69,76a5.67,5.67,0,0,0-.84,2.88,2.53,2.53,0,0,0,.57,1.63,2.5,2.5,0,0,0,2,.7,4.35,4.35,0,0,0,2.12-.52,7.21,7.21,0,0,0,2-1.74l-.26-.24a6.12,6.12,0,0,1-1.44,1,2.78,2.78,0,0,1-1.23.3,1.36,1.36,0,0,1-1-.4,1.45,1.45,0,0,1-.38-1,7.57,7.57,0,0,1,.08-.94A9.43,9.43,0,0,0,66,77.35Z" transform="translate(0 0)"/><path d="M73.32,75.05a3.59,3.59,0,0,1,.93-.85,1.08,1.08,0,0,1,.58-.16.7.7,0,0,1,.58.31,1.58,1.58,0,0,1,.24,1,8.35,8.35,0,0,1-.8,3.43A5.83,5.83,0,0,1,74.09,80a2.7,2.7,0,0,1-.66.62,1.05,1.05,0,0,1-.55.16.84.84,0,0,1-.5-.15,1.83,1.83,0,0,1-.47-.57ZM70.44,73.6a2.72,2.72,0,0,1,.63,0,.4.4,0,0,1,.22.15.49.49,0,0,1,.07.25,4.92,4.92,0,0,1-.24,1.17L69,82.6a3.3,3.3,0,0,1-.7,1.48,1.36,1.36,0,0,1-.93.36l-.09.32H72l.08-.32a2.17,2.17,0,0,1-.91-.28.55.55,0,0,1-.19-.44,5,5,0,0,1,.25-1.31l.45-1.59a3.25,3.25,0,0,0,.64.28,2.29,2.29,0,0,0,.56.06,4.52,4.52,0,0,0,3.37-1.72A6.51,6.51,0,0,0,78,75a2.66,2.66,0,0,0-.45-1.56,1.45,1.45,0,0,0-1.27-.63,2.53,2.53,0,0,0-1.17.29,7.55,7.55,0,0,0-1.51,1.14L74,72.77h-.52l-2.91.49Z" transform="translate(0 0)"/><path d="M81.58,69.1a1.25,1.25,0,0,0-.37.91,1.3,1.3,0,0,0,1.28,1.3,1.28,1.28,0,0,0,.92-.38,1.3,1.3,0,0,0-.92-2.21A1.24,1.24,0,0,0,81.58,69.1Zm.93,3.67-3,.48-.12.35h.32a.67.67,0,0,1,.46.15.45.45,0,0,1,.17.34,3.59,3.59,0,0,1-.18.92L79,79.2a3,3,0,0,0-.15.82,1.08,1.08,0,0,0,.34.82,1.28,1.28,0,0,0,.91.32q1.48,0,2.82-2.31l-.3-.18a5.58,5.58,0,0,1-1,1.18.44.44,0,0,1-.3.13.27.27,0,0,1-.17-.08.29.29,0,0,1-.08-.18,3.53,3.53,0,0,1,.15-.71L83,72.77Z" transform="translate(0 0)"/><path d="M87.72,72.77l-3,.51-.1.34a2.57,2.57,0,0,1,.6,0,.52.52,0,0,1,.23.16.41.41,0,0,1,.07.25,5,5,0,0,1-.24,1.19l-1.64,5.64h2.24l.72-2.61A12.33,12.33,0,0,1,89,74.85a1.27,1.27,0,0,1,.8-.46.26.26,0,0,1,.19.08.23.23,0,0,1,.08.17,2,2,0,0,1-.12.54l-1.09,3.76A4,4,0,0,0,88.63,80a.94.94,0,0,0,.31.71,1.26,1.26,0,0,0,.85.28c.95,0,1.86-.73,2.72-2.17l-.33-.2c-.12.16-.21.28-.26.36a3.32,3.32,0,0,1-.62.72.34.34,0,0,1-.19.08.19.19,0,0,1-.13-.08.18.18,0,0,1-.07-.15,3.25,3.25,0,0,1,.14-.64l1.13-3.76A4.27,4.27,0,0,0,92.39,74a1.22,1.22,0,0,0-.33-.89,1.05,1.05,0,0,0-.78-.33,2.3,2.3,0,0,0-1.09.31,5.64,5.64,0,0,0-1.38,1.2,21.14,21.14,0,0,0-1.64,2.26l1.09-3.77Z" transform="translate(0 0)"/><path d="M99.16,73.43a.85.85,0,0,1,.24.63A5.83,5.83,0,0,1,99,76a3.8,3.8,0,0,1-.87,1.54.89.89,0,0,1-.62.25.87.87,0,0,1-.62-.25.93.93,0,0,1-.25-.69A5.91,5.91,0,0,1,97,74.92a3.52,3.52,0,0,1,.83-1.44,1,1,0,0,1,.73-.28A.76.76,0,0,1,99.16,73.43Zm.57-.5a4.9,4.9,0,0,0-1.33-.16,4.7,4.7,0,0,0-2.07.43A3.19,3.19,0,0,0,95,74.32a2.54,2.54,0,0,0-.46,1.45A2.09,2.09,0,0,0,94.89,77a2.69,2.69,0,0,0,1.24.89,5,5,0,0,0-1.58.88,1.42,1.42,0,0,0-.47,1,1.12,1.12,0,0,0,.26.69,2.2,2.2,0,0,0,.72.55,4.57,4.57,0,0,0-2,.81,1.34,1.34,0,0,0-.48,1,1.45,1.45,0,0,0,.73,1.21,5.54,5.54,0,0,0,3.14.71A5,5,0,0,0,99.53,84a2.41,2.41,0,0,0,1-1.92,1.92,1.92,0,0,0-.4-1.24A2.83,2.83,0,0,0,99,80a15.71,15.71,0,0,0-2.36-.62,1.6,1.6,0,0,1-.68-.3.35.35,0,0,1-.13-.28.38.38,0,0,1,.1-.25,2.58,2.58,0,0,1,.73-.47c.26,0,.5.08.72.1a4.41,4.41,0,0,0,.6,0,4.36,4.36,0,0,0,1.89-.4,3.05,3.05,0,0,0,1.28-1.08,2.67,2.67,0,0,0,.44-1.48,2,2,0,0,0-.29-1h1.22l.28-1h-2.34A2.36,2.36,0,0,0,99.73,72.93Zm-3.2,8.63a6.4,6.4,0,0,1,1.73.63.9.9,0,0,1,.46.77,1.19,1.19,0,0,1-.5.94,2.53,2.53,0,0,1-1.59.4,3.23,3.23,0,0,1-1.92-.46,1.23,1.23,0,0,1-.3-1.86,2.83,2.83,0,0,1,1.14-.7C95.8,81.36,96.13,81.46,96.53,81.56Z" transform="translate(0 0)"/><path d="M110.62,69.57a.58.58,0,0,1,.25.51,4.44,4.44,0,0,1-.2,1.06l-2.2,7.63a3.06,3.06,0,0,1-.75,1.48,2,2,0,0,1-1.3.34l-.09.32h5.91l.09-.32a2.3,2.3,0,0,1-1.2-.25.58.58,0,0,1-.24-.49,4.88,4.88,0,0,1,.24-1.08l2.18-7.63a3.09,3.09,0,0,1,.73-1.47,1.86,1.86,0,0,1,1.21-.35l.11-.33h-5.82l-.09.33A2.44,2.44,0,0,1,110.62,69.57Z" transform="translate(0 0)"/><path d="M118.24,72.77l-3,.51-.09.34a2.57,2.57,0,0,1,.6,0,.48.48,0,0,1,.22.16.41.41,0,0,1,.07.25,5.42,5.42,0,0,1-.23,1.19l-1.65,5.64h2.24l.73-2.61a12.11,12.11,0,0,1,2.34-3.45,1.31,1.31,0,0,1,.81-.46.25.25,0,0,1,.18.08.2.2,0,0,1,.08.17,1.87,1.87,0,0,1-.11.54l-1.1,3.76a4.34,4.34,0,0,0-.21,1.09.9.9,0,0,0,.31.71,1.24,1.24,0,0,0,.85.28c1,0,1.85-.73,2.72-2.17l-.34-.2-.25.36a3.08,3.08,0,0,1-.63.72.29.29,0,0,1-.18.08.25.25,0,0,1-.2-.23,2.63,2.63,0,0,1,.14-.64l1.12-3.76A4.27,4.27,0,0,0,122.9,74a1.26,1.26,0,0,0-.32-.89,1.07,1.07,0,0,0-.78-.33,2.27,2.27,0,0,0-1.09.31,5.64,5.64,0,0,0-1.38,1.2,19.53,19.53,0,0,0-1.65,2.26l1.09-3.77Z" transform="translate(0 0)"/><path d="M129.2,76.93a6.9,6.9,0,0,1-1.47,2.3,1,1,0,0,1-.62.28.42.42,0,0,1-.33-.21,1,1,0,0,1-.15-.62,8.08,8.08,0,0,1,.68-2.86,6.39,6.39,0,0,1,1.31-2.26.9.9,0,0,1,.6-.29.63.63,0,0,1,.49.24,1.15,1.15,0,0,1,.22.78A7,7,0,0,1,129.2,76.93Zm4.07-8.21-2.9.54-.08.34.3,0a.61.61,0,0,1,.43.15.49.49,0,0,1,.15.36,5,5,0,0,1-.23,1.16l-.65,2.19a2.55,2.55,0,0,0-.61-.52,1.26,1.26,0,0,0-.62-.14,2.91,2.91,0,0,0-1.35.36,5.27,5.27,0,0,0-1.45,1.22,8.11,8.11,0,0,0-1.34,2.12,6.17,6.17,0,0,0-.58,2.59,2.36,2.36,0,0,0,.45,1.56,1.39,1.39,0,0,0,1.11.54,2,2,0,0,0,1.2-.48A9.2,9.2,0,0,0,129,78.1l-.26.9a4.59,4.59,0,0,0-.23,1.17.94.94,0,0,0,.29.71,1.09,1.09,0,0,0,.81.28c1,0,1.9-.72,2.72-2.16l-.31-.17a4.09,4.09,0,0,1-.79.93.61.61,0,0,1-.35.15.21.21,0,0,1-.15-.07.26.26,0,0,1-.07-.17,5.82,5.82,0,0,1,.28-1.11l2.85-9.84Z" transform="translate(0 0)"/><path d="M137.23,72.77l-3,.51-.09.34a2.61,2.61,0,0,1,.61,0,.59.59,0,0,1,.23.16.4.4,0,0,1,.07.24,5.11,5.11,0,0,1-.25,1.16l-1,3.51a4.51,4.51,0,0,0-.22,1.21,1.18,1.18,0,0,0,.34.87,1.1,1.1,0,0,0,.8.34,2.25,2.25,0,0,0,1-.29,5.58,5.58,0,0,0,1.33-1.16c.34-.39.9-1.14,1.66-2.24L138.33,79a4.27,4.27,0,0,0-.22,1.21.9.9,0,0,0,.31.72,1.22,1.22,0,0,0,.86.28c1,0,1.87-.74,2.69-2.21l-.3-.21a5,5,0,0,1-.84,1,.33.33,0,0,1-.23.11.19.19,0,0,1-.14-.08.26.26,0,0,1-.07-.14,6.23,6.23,0,0,1,.21-.85l1.69-5.8-2.22.08-.8,2.69a15.38,15.38,0,0,1-2,3q-.68.72-1.08.72a.26.26,0,0,1-.17-.07.15.15,0,0,1-.06-.13,2.58,2.58,0,0,1,.12-.57l1.71-6Z" transform="translate(0 0)"/><path d="M149.37,72.77a.67.67,0,0,1-.56.29,3.17,3.17,0,0,1-.63-.1,5.71,5.71,0,0,0-1.34-.19,2.75,2.75,0,0,0-1.93.63,2.05,2.05,0,0,0-.69,1.58,2,2,0,0,0,.23,1,8.87,8.87,0,0,0,1.35,1.72,7.24,7.24,0,0,1,.95,1.21,1.65,1.65,0,0,1,.21.8,1,1,0,0,1-.32.72,1.09,1.09,0,0,1-.8.31,1.69,1.69,0,0,1-.86-.27,2,2,0,0,1-.71-.72,6.72,6.72,0,0,1-.58-1.52h-.28L143,81.16h.32a.92.92,0,0,1,.28-.28.77.77,0,0,1,.34-.06,2.75,2.75,0,0,1,.74.14,5.07,5.07,0,0,0,1.25.2,3.16,3.16,0,0,0,1.46-.37,2.6,2.6,0,0,0,1-1,2.65,2.65,0,0,0,.35-1.31,2.55,2.55,0,0,0-.3-1.21,13,13,0,0,0-1.69-2,3.25,3.25,0,0,1-.51-.67,1.32,1.32,0,0,1-.11-.53.76.76,0,0,1,.26-.57,1,1,0,0,1,.67-.24,1.73,1.73,0,0,1,1.24.61,2.6,2.6,0,0,1,.64,1.66h.33l.38-2.71Z" transform="translate(0 0)"/><path d="M154.69,70.62a11.22,11.22,0,0,1-1.86,1.78,7.85,7.85,0,0,1-1.9,1l-.17.65H152l-1.39,4.76a5.08,5.08,0,0,0-.23,1.31,1,1,0,0,0,.33.77,1.33,1.33,0,0,0,.93.3,2.59,2.59,0,0,0,1.43-.49,4.65,4.65,0,0,0,1.34-1.55l-.31-.19a5.09,5.09,0,0,1-.94,1.07.51.51,0,0,1-.31.12.25.25,0,0,1-.17-.08.3.3,0,0,1-.08-.2,3,3,0,0,1,.14-.72l1.47-5.1h1.13l.31-1h-1.15l.7-2.39Z" transform="translate(0 0)"/><path d="M158.73,72.77l-2.66.58-.08.25a2,2,0,0,1,.61.06.47.47,0,0,1,.22.2.62.62,0,0,1,.09.36,4.5,4.5,0,0,1-.16.87l-1.45,5.82h2.13a23.58,23.58,0,0,1,.71-2.52c.17-.45.41-1,.71-1.63a8.76,8.76,0,0,1,.77-1.36,2.06,2.06,0,0,1,.5-.52.49.49,0,0,1,.19,0,.24.24,0,0,1,.15.06,1.35,1.35,0,0,1,.24.38.58.58,0,0,0,.53.33.74.74,0,0,0,.59-.37,2.4,2.4,0,0,0,.41-1.44A1.17,1.17,0,0,0,162,73a.76.76,0,0,0-.6-.26,1.41,1.41,0,0,0-1,.49,18.78,18.78,0,0,0-2.46,4.44l1.32-4.93Z" transform="translate(0 0)"/><path d="M162.45,73.9l.34,0a.79.79,0,0,1,.64.3,2.61,2.61,0,0,1,.4,1.33l.14,3.35c.05.91.07,1.62.07,2.12s0,.93,0,1.67a3.31,3.31,0,0,1-.74.65.82.82,0,0,1-.39.11c-.13,0-.29-.13-.49-.38a1.28,1.28,0,0,0-1-.56,1,1,0,0,0-.75.33,1.17,1.17,0,0,0-.32.82,1.15,1.15,0,0,0,.36.84,1.17,1.17,0,0,0,.85.35,1.86,1.86,0,0,0,.75-.17,5.28,5.28,0,0,0,1.22-.79A14.91,14.91,0,0,0,165,82.22,41.8,41.8,0,0,0,168.09,78a21.27,21.27,0,0,0,1.54-2.67A3.57,3.57,0,0,0,170,74a1.22,1.22,0,0,0-.36-.87,1.12,1.12,0,0,0-.84-.36,1,1,0,0,0-.77.32,1,1,0,0,0-.32.77.82.82,0,0,0,.1.44,2.42,2.42,0,0,0,.53.48.82.82,0,0,1,.43.65,2.25,2.25,0,0,1-.37,1.16,38.54,38.54,0,0,1-2.15,3.28c-.05-1.64-.13-3.18-.26-4.62a6.46,6.46,0,0,0-.33-1.72,2.61,2.61,0,0,0-.46-.76l-2.71.79Z" transform="translate(0 0)"/><path d="M177.62,69.1a1.32,1.32,0,0,0,0,1.83,1.27,1.27,0,0,0,.91.38,1.24,1.24,0,0,0,.91-.38,1.22,1.22,0,0,0,.38-.92,1.25,1.25,0,0,0-.37-.91,1.26,1.26,0,0,0-.92-.38A1.24,1.24,0,0,0,177.62,69.1Zm.93,3.67-3,.48-.12.35h.32a.67.67,0,0,1,.46.15.44.44,0,0,1,.16.34,4,4,0,0,1-.17.92L175,79.2a3,3,0,0,0-.15.82,1.11,1.11,0,0,0,.33.82,1.29,1.29,0,0,0,.91.32c1,0,1.94-.77,2.83-2.31l-.3-.18a5.58,5.58,0,0,1-1,1.18.44.44,0,0,1-.3.13.25.25,0,0,1-.17-.08.29.29,0,0,1-.08-.18,3.53,3.53,0,0,1,.15-.71l1.8-6.24Z" transform="translate(0 0)"/><path d="M183.76,72.77l-3,.51-.1.34a2.57,2.57,0,0,1,.6,0,.59.59,0,0,1,.23.16.49.49,0,0,1,.07.25,5,5,0,0,1-.24,1.19l-1.64,5.64H182l.72-2.61A12.32,12.32,0,0,1,185,74.85a1.31,1.31,0,0,1,.81-.46.29.29,0,0,1,.19.08.23.23,0,0,1,.08.17,2,2,0,0,1-.12.54l-1.1,3.76a4.34,4.34,0,0,0-.21,1.09.94.94,0,0,0,.31.71,1.26,1.26,0,0,0,.85.28c.95,0,1.86-.73,2.72-2.17l-.34-.2L188,79a3.32,3.32,0,0,1-.62.72.34.34,0,0,1-.19.08.17.17,0,0,1-.13-.08.18.18,0,0,1-.07-.15,3.25,3.25,0,0,1,.14-.64l1.12-3.76a4,4,0,0,0,.22-1.19,1.22,1.22,0,0,0-.33-.89,1.07,1.07,0,0,0-.78-.33,2.3,2.3,0,0,0-1.09.31,5.64,5.64,0,0,0-1.38,1.2,22.31,22.31,0,0,0-1.65,2.26l1.09-3.77Z" transform="translate(0 0)"/><path d="M196.56,69l-.11.33a2.91,2.91,0,0,1,1,.12,1.93,1.93,0,0,1,.66.53l-2.57,8.81a2.75,2.75,0,0,1-1,1.51,2,2,0,0,1-1.09.3l-.08.32h3.94l.09-.32a1.69,1.69,0,0,1-1-.3.89.89,0,0,1-.3-.7,3.12,3.12,0,0,1,.14-.81l2.28-7.92,1.07,10h.36l6.82-9.86-2.24,7.73a2.88,2.88,0,0,1-.77,1.44,2.23,2.23,0,0,1-1.42.37l-.1.32h5.95l.07-.32a1.91,1.91,0,0,1-1-.22.61.61,0,0,1-.27-.52,3.92,3.92,0,0,1,.22-1.07l2.19-7.63a3,3,0,0,1,.77-1.46,2,2,0,0,1,1.31-.37l.1-.33h-4.17l-5.67,8.2-.88-8.2Z" transform="translate(0 0)"/><path d="M216.07,73.48a1.08,1.08,0,0,1,.22.71,9.42,9.42,0,0,1-.36,2.44,12,12,0,0,1-.93,2.43,4.6,4.6,0,0,1-.95,1.42.91.91,0,0,1-.6.21.75.75,0,0,1-.58-.26.93.93,0,0,1-.25-.67,10.4,10.4,0,0,1,.78-3.67,7.36,7.36,0,0,1,1.38-2.59,1.16,1.16,0,0,1,.78-.27A.7.7,0,0,1,216.07,73.48Zm-2.17-.22a6.26,6.26,0,0,0-1.73,1.29,7,7,0,0,0-1.24,1.87,5.35,5.35,0,0,0-.49,2.29,2.48,2.48,0,0,0,.66,1.74,2.39,2.39,0,0,0,1.85.71,4.85,4.85,0,0,0,2.62-.82,6.21,6.21,0,0,0,2.09-2.25,5.81,5.81,0,0,0,.8-2.85,2.67,2.67,0,0,0-.31-1.26,2.16,2.16,0,0,0-.93-.89,2.66,2.66,0,0,0-1.3-.32A4.39,4.39,0,0,0,213.9,73.26Z" transform="translate(0 0)"/><path d="M223.7,70.62a11.22,11.22,0,0,1-1.86,1.78,7.66,7.66,0,0,1-1.9,1l-.17.65H221l-1.39,4.76a5,5,0,0,0-.22,1.31,1,1,0,0,0,.33.77,1.29,1.29,0,0,0,.92.3,2.65,2.65,0,0,0,1.44-.49,4.63,4.63,0,0,0,1.33-1.55l-.31-.19a4.83,4.83,0,0,1-.94,1.07.5.5,0,0,1-.3.12.25.25,0,0,1-.18-.08.3.3,0,0,1-.08-.2,3,3,0,0,1,.14-.72l1.47-5.1h1.13l.31-1h-1.15l.7-2.39Z" transform="translate(0 0)"/><path d="M227.14,69.1a1.29,1.29,0,1,0,2.2.91,1.29,1.29,0,0,0-.37-.91,1.26,1.26,0,0,0-.92-.38A1.24,1.24,0,0,0,227.14,69.1Zm.92,3.67-3,.48-.11.35h.32a.64.64,0,0,1,.45.15.42.42,0,0,1,.17.34,4,4,0,0,1-.17.92l-1.23,4.2a3,3,0,0,0-.15.82,1.12,1.12,0,0,0,.34.82,1.29,1.29,0,0,0,.91.32q1.5,0,2.82-2.31l-.3-.18a5.3,5.3,0,0,1-.94,1.18.44.44,0,0,1-.3.13.25.25,0,0,1-.17-.08.29.29,0,0,1-.08-.18,3.53,3.53,0,0,1,.15-.71l1.8-6.24Z" transform="translate(0 0)"/><path d="M235.07,73.48a1,1,0,0,1,.22.71,9.42,9.42,0,0,1-.36,2.44,12.65,12.65,0,0,1-.92,2.43,5,5,0,0,1-.95,1.42,1,1,0,0,1-.61.21.75.75,0,0,1-.58-.26,1,1,0,0,1-.25-.67,10.4,10.4,0,0,1,.78-3.67,7.34,7.34,0,0,1,1.39-2.59,1.11,1.11,0,0,1,.77-.27A.7.7,0,0,1,235.07,73.48Zm-2.17-.22a6.26,6.26,0,0,0-1.73,1.29,7,7,0,0,0-1.24,1.87,5.5,5.5,0,0,0-.49,2.29,2.48,2.48,0,0,0,.66,1.74,2.4,2.4,0,0,0,1.85.71,4.85,4.85,0,0,0,2.62-.82,6.13,6.13,0,0,0,2.09-2.25,5.81,5.81,0,0,0,.8-2.85,2.56,2.56,0,0,0-.31-1.26,2.16,2.16,0,0,0-.93-.89,2.66,2.66,0,0,0-1.3-.32A4.39,4.39,0,0,0,232.9,73.26Z" transform="translate(0 0)"/><path d="M242.28,72.77l-3,.51-.09.34a2.57,2.57,0,0,1,.6,0,.48.48,0,0,1,.22.16.41.41,0,0,1,.07.25,4.87,4.87,0,0,1-.23,1.19l-1.65,5.64h2.24l.73-2.61a12.11,12.11,0,0,1,2.34-3.45,1.31,1.31,0,0,1,.81-.46.29.29,0,0,1,.19.08.22.22,0,0,1,.07.17,1.87,1.87,0,0,1-.11.54l-1.1,3.76a4.34,4.34,0,0,0-.21,1.09.9.9,0,0,0,.31.71,1.24,1.24,0,0,0,.85.28c1,0,1.85-.73,2.72-2.17l-.34-.2-.25.36a3.08,3.08,0,0,1-.63.72.29.29,0,0,1-.18.08.25.25,0,0,1-.2-.23,2.63,2.63,0,0,1,.14-.64l1.12-3.76a4.27,4.27,0,0,0,.21-1.19,1.26,1.26,0,0,0-.32-.89,1.07,1.07,0,0,0-.78-.33,2.27,2.27,0,0,0-1.09.31,5.64,5.64,0,0,0-1.38,1.2,19.53,19.53,0,0,0-1.65,2.26l1.09-3.77Z" transform="translate(0 0)"/><path d="M236.14,8.26h-.72V2.88h2.49c.88,0,1.77.31,1.77,1.45a1.35,1.35,0,0,1-.75,1.29c.3.12.61.26.64,1l.05,1c0,.3,0,.42.27.55v.11H239a6.86,6.86,0,0,1-.12-1.35c0-.44-.09-1-1-1h-1.77Zm0-2.93h1.69c.53,0,1.1-.13,1.1-.93s-.61-.9-1-.9h-1.82Z" transform="translate(0 0)"/><path class="cls-2" d="M237.52,10.25a4.62,4.62,0,1,0-4.62-4.62A4.62,4.62,0,0,0,237.52,10.25Z" transform="translate(0 0)"/><path class="cls-2" d="M237.52,5.63" transform="translate(0 0)"/></svg>