<svg xmlns="http://www.w3.org/2000/svg" viewBox="0 0 179.31 86.84"><defs><style>.cls-1{fill:#003e6b;}.cls-2{fill:#717375;}</style></defs><title>TSYS logo</title><g id="Layer_2" data-name="Layer 2"><g id="Layer_1-2" data-name="Layer 1"><path class="cls-1" d="M54.85,5.39H83.36V13.9H74.58V39.77H63.63V13.9H54.85Z"/><path class="cls-1" d="M128.83,6.25l6.47,10.91,6.37-10.91h12.14l-13.35,19V39H130V25.24l-13.25-19Z"/><path class="cls-1" d="M178.55,0a.76.76,0,0,0-.76.76V7.82c-.32-.18-.66-.37-1-.55a22.79,22.79,0,0,0-10-2.09c-6,0-11.52,1.9-13.68,6.73a10.12,10.12,0,0,0-.94,4.23c0,6.92,6,8.78,9,9.56,1.36.33,7.45,1.39,8.62,1.81,1.83.61,1.83,1.82,1.83,2,0,2.37-4.12,2.46-5,2.46a15.09,15.09,0,0,1-4.64-.74,7.3,7.3,0,0,1-4.59-3.58l-8,5.11A17.14,17.14,0,0,0,158.58,39a27.71,27.71,0,0,0,7.68,1c1.67,0,7.37,0,11.53-3.24v7.31a.76.76,0,1,0,1.52,0V.76A.76.76,0,0,0,178.55,0ZM167.2,17.72c-2.86-.51-4.55-.93-4.55-2.51s2-2.13,3.75-2.13a15.38,15.38,0,0,1,6.14,1.2,6.78,6.78,0,0,1,2.53,2.14l2.72-2.26v6.61C175,19.07,171.1,18.38,167.2,17.72Z"/><path class="cls-1" d="M103.32,17.72c-2.86-.51-4.54-.93-4.54-2.51s2-2.13,3.74-2.13a15.32,15.32,0,0,1,6.14,1.2,6.62,6.62,0,0,1,2.53,2.14L117.76,11a16,16,0,0,0-4.88-3.71,22.82,22.82,0,0,0-10-2.09c-4.87,0-9.49,1.28-12.19,4.38V.76a.76.76,0,1,0-1.52,0V44.07a.76.76,0,1,0,1.52,0V37.39a18.58,18.58,0,0,0,4,1.64,27.81,27.81,0,0,0,7.68,1c1.83,0,8.49,0,12.66-4.22A10.31,10.31,0,0,0,118,28.4C118,20.27,110.68,19,103.32,17.72ZM102.76,32a15.09,15.09,0,0,1-4.64-.74,7.25,7.25,0,0,1-4.59-3.58l-2.82,1.79V22.41a14.16,14.16,0,0,0,6.57,3.29c1.36.33,7.45,1.39,8.62,1.81,1.83.61,1.83,1.82,1.83,2C107.73,31.93,103.6,32,102.76,32Z"/><path class="cls-2" d="M0,84.3l5.8-9.52h1L8.58,84.3H7.64l-.47-2.57H2.43L.88,84.3Zm7-3.36-.91-5.37L2.88,80.94Z"/><path class="cls-2" d="M21.07,77.69a1.62,1.62,0,0,0-.06-1A1.47,1.47,0,0,0,19.57,76c-2.32,0-3.24,2.16-3.55,3.63a3.42,3.42,0,0,0,.24,2.56,2.23,2.23,0,0,0,2.07.82,4.87,4.87,0,0,0,1.6-.19l.42-2H18.51l.33-1.59h3.9l-1,4.77a11.11,11.11,0,0,1-3.59.52c-2.18,0-3.19-.52-3.78-1.26a4.31,4.31,0,0,1-.51-3.57,6.11,6.11,0,0,1,6.1-5.18,3.5,3.5,0,0,1,3,1.2,2.53,2.53,0,0,1,.26,2Z"/><path class="cls-2" d="M25.51,74.76h1.95l-2,9.54h-2Z"/><path class="cls-2" d="M31.74,77.48c2.42,0,3.11,1.64,2.72,3.5a4.27,4.27,0,0,1-4.26,3.56c-1.9,0-3.15-1.17-2.66-3.51A4.22,4.22,0,0,1,31.74,77.48Zm-1.18,5.7c.86,0,1.55-.51,1.92-2.28.19-.89.28-2.11-1-2.11S29.68,80.44,29.55,81C29.23,82.53,29.59,83.18,30.56,83.18Z"/><path class="cls-2" d="M37.17,74.79h2l-.78,3.65a2.75,2.75,0,0,1,2.08-.89c1.62,0,2.63,1.28,2.15,3.52-.53,2.49-2.16,3.36-3.5,3.36a1.75,1.75,0,0,1-1.78-1.06c0,.21-.13.52-.26.93H35.15Zm2.45,4.06c-1.44,0-1.78,1.64-1.87,2.06-.33,1.52.17,2.24,1,2.24,1.35,0,1.7-1.67,1.78-2C40.69,80.61,41,78.85,39.62,78.85Z"/><path class="cls-2" d="M47.28,84.3a5.54,5.54,0,0,1,.13-.91,2.77,2.77,0,0,1-2.22,1.07,1.82,1.82,0,0,1-1.55-.53,1.76,1.76,0,0,1-.27-1.46,2.88,2.88,0,0,1,1.85-2.07A7.56,7.56,0,0,1,47.94,80a2.62,2.62,0,0,0,.09-.89c-.06-.48-.56-.55-.75-.55a1.13,1.13,0,0,0-.82.37,1.26,1.26,0,0,0-.27.59H44.28A2.4,2.4,0,0,1,45.37,78a4.09,4.09,0,0,1,2.13-.54,2.64,2.64,0,0,1,2.19.86,2.4,2.4,0,0,1,.12,1.64l-.56,2.67a8.28,8.28,0,0,0-.2,1.69Zm-2-2.06a.72.72,0,0,0,.75,1,1.39,1.39,0,0,0,.91-.38,3,3,0,0,0,.72-1.65C46.47,81.06,45.49,81.45,45.32,82.24Z"/><path class="cls-2" d="M52.65,74.76h2l-2,9.54h-2Z"/><path class="cls-2" d="M60,74.79h3c1.37,0,2.5.09,3.09,1a2.44,2.44,0,0,1,.2,1.78,3.87,3.87,0,0,1-1.75,2.54,4.63,4.63,0,0,1-2.26.45H60.82L60,84.3H58Zm1.11,4.29h.82a1.87,1.87,0,0,0,2.19-1.45c.28-1.3-.82-1.3-1.4-1.3h-1Z"/><path class="cls-2" d="M69.7,84.3a5.78,5.78,0,0,1,.12-.91,2.76,2.76,0,0,1-2.22,1.07,1.83,1.83,0,0,1-1.55-.53,1.72,1.72,0,0,1-.26-1.46,2.88,2.88,0,0,1,1.85-2.07A7.51,7.51,0,0,1,70.35,80a2.44,2.44,0,0,0,.1-.89.71.71,0,0,0-.75-.55,1.11,1.11,0,0,0-.82.37,1.17,1.17,0,0,0-.27.59H66.69A2.4,2.4,0,0,1,67.78,78a4.09,4.09,0,0,1,2.13-.54,2.64,2.64,0,0,1,2.2.86,2.45,2.45,0,0,1,.11,1.64l-.55,2.67a7.66,7.66,0,0,0-.21,1.69Zm-2-2.06a.73.73,0,0,0,.75,1,1.37,1.37,0,0,0,.91-.38,2.89,2.89,0,0,0,.72-1.65C68.88,81.06,67.9,81.45,67.73,82.24Z"/><path class="cls-2" d="M75.63,77.64l.48,4.62,2.48-4.62h1.94l-3.91,6.54-1.37,2.66h-2l1.38-2.51-1.14-6.69Z"/><path class="cls-2" d="M81.31,78.89c.09-.42.15-.83.2-1.25h1.88l-.11.86a2.89,2.89,0,0,1,2.27-1c1.53,0,1.76.94,1.83,1.26a2.79,2.79,0,0,1,2.4-1.24,1.67,1.67,0,0,1,1.8,1.07,3.63,3.63,0,0,1-.08,2l-.8,3.76h-2l.83-3.92c.16-.71.22-1.5-.8-1.5-1.17,0-1.43,1.1-1.64,2.08l-.71,3.34h-2l.85-4c.1-.51.29-1.46-.79-1.46A1.58,1.58,0,0,0,83,80.38l-.83,3.92h-2Z"/><path class="cls-2" d="M94.75,81.47c-.09.43-.38,1.78,1,1.78a1.41,1.41,0,0,0,1.36-.93h1.78a2.85,2.85,0,0,1-.94,1.46,3.92,3.92,0,0,1-2.5.77,2.71,2.71,0,0,1-2.17-.83,3.13,3.13,0,0,1-.31-2.6A4.67,4.67,0,0,1,95,78a3.93,3.93,0,0,1,2-.55A2.23,2.23,0,0,1,99.35,79a4.79,4.79,0,0,1-.13,2.44Zm2.74-1.23c.07-.3.29-1.49-.84-1.49a1.72,1.72,0,0,0-1.57,1.49Z"/><path class="cls-2" d="M101.11,78.83s.16-.76.22-1.22h1.87l-.16,1a2.94,2.94,0,0,1,2.41-1.16c1.31,0,1.69.79,1.76,1.25a5.44,5.44,0,0,1-.23,2l-.77,3.6h-2l.88-4.14a1.56,1.56,0,0,0,.05-.73.79.79,0,0,0-.83-.56,1.53,1.53,0,0,0-1.13.51,2.27,2.27,0,0,0-.45,1l-.83,3.9h-2Z"/><path class="cls-2" d="M111.92,84.21a6.6,6.6,0,0,1-1.56.21c-2,0-1.7-1.24-1.59-1.79l.78-3.66h-1.28l.28-1.29h1.28l.27-1.31,2.09-.71-.43,2h1.59L113.07,79h-1.58l-.64,3c-.11.61-.2,1,.67,1a4.55,4.55,0,0,0,.67,0Z"/><path class="cls-2" d="M114.89,82.38c-.07.42.09.91.91.91a1.15,1.15,0,0,0,1.2-.79c.06-.31,0-.55-.77-.76l-1.14-.33c-.51-.16-1.58-.49-1.3-1.84s1.63-2.09,3.36-2.09c1.37,0,2.35.63,2.12,2h-1.78c.1-.74-.48-.79-.78-.79a1,1,0,0,0-1.07.66c-.09.44.22.54.76.69l1.13.33c1.15.33,1.58,1,1.39,1.86-.24,1.15-1.48,2.3-3.55,2.3a2.46,2.46,0,0,1-2.11-.82,1.69,1.69,0,0,1-.21-1.3Z"/><path class="cls-2" d="M131.23,77c.09-1.16-.81-1.64-1.89-1.64-2.45,0-3.65,2.22-4.07,4.17s-.15,4.17,2.29,4.17A2.88,2.88,0,0,0,130.28,82h.92a4.11,4.11,0,0,1-3.8,2.51c-2.89,0-3.61-2.32-3.05-5s2.28-5,5.15-5c1.56,0,2.89.71,2.65,2.43Z"/><path class="cls-2" d="M138.79,81A4.12,4.12,0,0,1,135,84.5c-2.11,0-2.71-1.77-2.34-3.51a4.12,4.12,0,0,1,3.83-3.51C138.56,77.48,139.16,79.25,138.79,81Zm-2.49-2.78c-1.6,0-2.56,1.55-2.82,2.78s0,2.79,1.63,2.79,2.57-1.56,2.83-2.79S137.89,78.21,136.3,78.21Z"/><path class="cls-2" d="M141.71,78.66l0,0a2.89,2.89,0,0,1,2.33-1.2,1.69,1.69,0,0,1,1.84,1.45,3.55,3.55,0,0,1,2.59-1.45c2.16,0,1.93,1.91,1.76,2.68l-.88,4.14h-.79l.91-4.27c.24-1.15-.27-1.82-1.35-1.82a2.58,2.58,0,0,0-2.39,2.28l-.81,3.81h-.79l.91-4.27c.24-1.15-.28-1.82-1.36-1.82a2.58,2.58,0,0,0-2.38,2.28l-.81,3.81h-.79l1.09-5.13c.11-.51.18-1,.25-1.49h.82Z"/><path class="cls-2" d="M151.59,86.84h-.8l1.63-7.67a12.87,12.87,0,0,0,.25-1.49h.82l-.17,1,0,0a3.33,3.33,0,0,1,2.52-1.2c2,0,2.34,1.77,2,3.48s-1.51,3.54-3.43,3.54a2.1,2.1,0,0,1-2-1.23h0Zm2.9-3.06c1.52,0,2.26-1.68,2.52-2.91s.05-2.66-1.45-2.66a2.91,2.91,0,0,0-2.7,2.62C152.54,82.34,152.76,83.78,154.49,83.78Z"/><path class="cls-2" d="M163.65,79.63c.15-1.08-.33-1.42-1.27-1.42a1.72,1.72,0,0,0-1.86,1.14h-.85a2.82,2.82,0,0,1,2.88-1.87c1.46,0,2.23.67,1.88,2.19l-.66,3.14c-.13.52-.19,1-.26,1.49h-.81l.18-1h0l-.06.09a3.17,3.17,0,0,1-2.3,1.08c-1.23,0-2-.75-1.77-2a2.71,2.71,0,0,1,1.74-1.92,9.66,9.66,0,0,1,3.06-.3Zm-2.86,4.15c1.73,0,2.36-1.43,2.58-2.82-1.13,0-3.44-.17-3.79,1.5C159.39,83.35,160,83.78,160.79,83.78Z"/><path class="cls-2" d="M166.3,84.3h-.79l1.09-5.13c.11-.51.18-1,.25-1.49h.82l-.17,1,0,0a2.91,2.91,0,0,1,2.33-1.2c2.16,0,1.93,1.91,1.77,2.68l-.88,4.14h-.8l.91-4.27c.25-1.15-.27-1.82-1.35-1.82a2.58,2.58,0,0,0-2.39,2.28Z"/><path class="cls-2" d="M174,77.68l1.05,5.54,3.4-5.54h.85l-5.6,9.16h-.87l1.54-2.54-1.33-6.62Z"/></g></g></svg>